<svg width="28" height="29" viewBox="0 0 28 29" fill="none" xmlns="http://www.w3.org/2000/svg">
<path d="M16.1069 14.3425C16.1069 15.7951 14.9484 16.9727 13.5193 16.9727C12.0901 16.9727 10.9316 15.7951 10.9316 14.3425C10.9316 12.8898 12.0901 11.7123 13.5193 11.7123C14.9484 11.7123 16.1069 12.8898 16.1069 14.3425Z" fill="white"/>
<path d="M19.5711 9.68896C19.4467 9.34635 19.2483 9.03622 18.9904 8.78169C18.74 8.51957 18.4351 8.31789 18.0979 8.19143C17.8243 8.08346 17.4134 7.95491 16.6565 7.91991C15.8378 7.88197 15.5923 7.87378 13.5196 7.87378C11.4466 7.87378 11.2011 7.88175 10.3826 7.9197C9.62575 7.95491 9.21461 8.08346 8.94128 8.19143C8.60402 8.31789 8.29892 8.51957 8.04869 8.78169C7.79083 9.03622 7.59239 9.34614 7.46779 9.68896C7.36156 9.96699 7.23511 10.3849 7.20065 11.1542C7.16331 11.9862 7.15527 12.2357 7.15527 14.3427C7.15527 16.4496 7.16331 16.6991 7.20065 17.5313C7.23511 18.3006 7.36156 18.7183 7.46779 18.9963C7.59239 19.3392 7.79062 19.6491 8.04849 19.9036C8.29892 20.1657 8.60381 20.3674 8.94107 20.4938C9.21461 20.602 9.62573 20.7306 10.3826 20.7656C11.2011 20.8035 11.4464 20.8115 13.5193 20.8115C15.5925 20.8115 15.838 20.8035 16.6563 20.7656C17.4132 20.7306 17.8243 20.602 18.0979 20.4938C18.7749 20.2284 19.31 19.6845 19.5711 18.9963C19.6774 18.7183 19.8038 18.3006 19.8385 17.5313C19.8758 16.6991 19.8837 16.4496 19.8837 14.3427C19.8837 12.2357 19.8758 11.9862 19.8385 11.1542C19.804 10.3849 19.6776 9.96699 19.5711 9.68896ZM13.5195 18.3944C11.3179 18.3944 9.5331 16.5804 9.5331 14.3425C9.5331 12.1047 11.3179 10.2908 13.5195 10.2908C15.721 10.2908 17.5058 12.1047 17.5058 14.3425C17.5058 16.5804 15.721 18.3944 13.5195 18.3944ZM17.6634 11.0774C17.1489 11.0774 16.7318 10.6535 16.7318 10.1305C16.7318 9.60758 17.1489 9.18361 17.6634 9.18361C18.1779 9.18361 18.595 9.60758 18.595 10.1305C18.5948 10.6535 18.1779 11.0774 17.6634 11.0774Z" fill="white"/>
<path d="M13.5191 0.60083C6.05385 0.60083 0 6.75425 0 14.3423C0 21.9303 6.05385 28.0837 13.5191 28.0837C20.9843 28.0837 27.0382 21.9303 27.0382 14.3423C27.0382 6.75425 20.9843 0.60083 13.5191 0.60083ZM21.2352 17.5954C21.1976 18.4354 21.0662 19.0088 20.8744 19.5108C20.4711 20.5707 19.6468 21.4086 18.604 21.8185C18.1103 22.0135 17.5459 22.1469 16.7198 22.1852C15.892 22.2236 15.6275 22.2328 13.5193 22.2328C11.4108 22.2328 11.1466 22.2236 10.3186 22.1852C9.49238 22.1469 8.92799 22.0135 8.43435 21.8185C7.91616 21.6204 7.44707 21.3098 7.05925 20.9083C6.66442 20.5143 6.35892 20.0373 6.16398 19.5108C5.97213 19.009 5.84073 18.4354 5.80318 17.5956C5.76502 16.754 5.75615 16.4851 5.75615 14.3422C5.75615 12.1993 5.76502 11.9305 5.80298 11.0891C5.84052 10.2491 5.97172 9.67565 6.16356 9.17368C6.3585 8.64718 6.66422 8.17017 7.05925 7.77618C7.44686 7.37465 7.91616 7.06411 8.43414 6.86597C8.92799 6.67097 9.49218 6.53761 10.3186 6.49924C11.1464 6.46087 11.4108 6.45165 13.5191 6.45165C15.6273 6.45165 15.8918 6.46087 16.7196 6.49945C17.5459 6.53761 18.1101 6.67097 18.604 6.86576C19.122 7.0639 19.5913 7.37465 19.9791 7.77618C20.3739 8.17037 20.6796 8.64718 20.8744 9.17368C21.0664 9.67565 21.1976 10.2491 21.2354 11.0891C21.2731 11.9305 21.282 12.1993 21.282 14.3422C21.282 16.4851 21.2731 16.7539 21.2352 17.5954Z" fill="white"/>
</svg>
