<svg width="248" height="118" viewBox="0 0 248 118" fill="none" xmlns="http://www.w3.org/2000/svg">
<path d="M3.25316 0C1.45944 0 0 1.45944 0 3.25316C0 5.04688 1.45944 6.50632 3.25316 6.50632C5.04688 6.50632 6.50632 5.04688 6.50632 3.25316C6.50632 1.45944 5.04688 0 3.25316 0Z" fill="#BEBEBE"/>
<path d="M21.7746 0C19.9809 0 18.5215 1.45944 18.5215 3.25316C18.5215 5.04688 19.9809 6.50632 21.7746 6.50632C23.5684 6.50632 25.0278 5.04688 25.0278 3.25316C25.0278 1.45944 23.5684 0 21.7746 0Z" fill="#BEBEBE"/>
<path d="M40.2952 0C38.5014 0 37.042 1.45944 37.042 3.25316C37.042 5.04688 38.5014 6.50632 40.2952 6.50632C42.0889 6.50632 43.5483 5.04688 43.5483 3.25316C43.5483 1.45944 42.0889 0 40.2952 0Z" fill="#BEBEBE"/>
<path d="M58.8166 0C57.0229 0 55.5635 1.45944 55.5635 3.25316C55.5635 5.04688 57.0229 6.50632 58.8166 6.50632C60.6104 6.50632 62.0698 5.04688 62.0698 3.25316C62.0698 1.45944 60.6104 0 58.8166 0Z" fill="#BEBEBE"/>
<path d="M77.3371 0C75.5434 0 74.084 1.45944 74.084 3.25316C74.084 5.04688 75.5434 6.50632 77.3371 6.50632C79.1309 6.50632 80.5903 5.04688 80.5903 3.25316C80.5903 1.45944 79.1309 0 77.3371 0Z" fill="#BEBEBE"/>
<path d="M95.8586 0C94.0649 0 92.6055 1.45944 92.6055 3.25316C92.6055 5.04688 94.0649 6.50632 95.8586 6.50632C97.6524 6.50632 99.1118 5.04688 99.1118 3.25316C99.1118 1.45944 97.6524 0 95.8586 0Z" fill="#BEBEBE"/>
<path d="M114.379 0C112.585 0 111.126 1.45944 111.126 3.25316C111.126 5.04688 112.585 6.50632 114.379 6.50632C116.173 6.50632 117.632 5.04688 117.632 3.25316C117.632 1.45944 116.173 0 114.379 0Z" fill="#BEBEBE"/>
<path d="M3.25316 18.5167C1.45944 18.5167 0 19.9762 0 21.7699C0 23.5636 1.45944 25.023 3.25316 25.023C5.04688 25.023 6.50632 23.5636 6.50632 21.7699C6.50632 19.9762 5.04688 18.5167 3.25316 18.5167Z" fill="#BEBEBE"/>
<path d="M21.7746 18.5167C19.9809 18.5167 18.5215 19.9762 18.5215 21.7699C18.5215 23.5636 19.9809 25.023 21.7746 25.023C23.5684 25.023 25.0278 23.5636 25.0278 21.7699C25.0278 19.9762 23.5684 18.5167 21.7746 18.5167Z" fill="#BEBEBE"/>
<path d="M40.2952 18.5167C38.5014 18.5167 37.042 19.9762 37.042 21.7699C37.042 23.5636 38.5014 25.023 40.2952 25.023C42.0889 25.023 43.5483 23.5636 43.5483 21.7699C43.5483 19.9762 42.0889 18.5167 40.2952 18.5167Z" fill="#BEBEBE"/>
<path d="M58.8166 18.5167C57.0229 18.5167 55.5635 19.9762 55.5635 21.7699C55.5635 23.5636 57.0229 25.023 58.8166 25.023C60.6104 25.023 62.0698 23.5636 62.0698 21.7699C62.0698 19.9762 60.6104 18.5167 58.8166 18.5167Z" fill="#BEBEBE"/>
<path d="M77.3371 18.5167C75.5434 18.5167 74.084 19.9762 74.084 21.7699C74.084 23.5636 75.5434 25.023 77.3371 25.023C79.1309 25.023 80.5903 23.5636 80.5903 21.7699C80.5903 19.9762 79.1309 18.5167 77.3371 18.5167Z" fill="#BEBEBE"/>
<path d="M95.8586 18.5167C94.0649 18.5167 92.6055 19.9762 92.6055 21.7699C92.6055 23.5636 94.0649 25.023 95.8586 25.023C97.6524 25.023 99.1118 23.5636 99.1118 21.7699C99.1118 19.9762 97.6524 18.5167 95.8586 18.5167Z" fill="#BEBEBE"/>
<path d="M114.379 18.5167C112.585 18.5167 111.126 19.9762 111.126 21.7699C111.126 23.5636 112.585 25.023 114.379 25.023C116.173 25.023 117.632 23.5636 117.632 21.7699C117.632 19.9762 116.173 18.5167 114.379 18.5167Z" fill="#BEBEBE"/>
<path d="M3.25316 36.9181C1.45944 36.9181 0 38.3775 0 40.1712C0 41.965 1.45944 43.4244 3.25316 43.4244C5.04688 43.4244 6.50632 41.965 6.50632 40.1712C6.50632 38.3775 5.04688 36.9181 3.25316 36.9181Z" fill="#BEBEBE"/>
<path d="M21.7746 36.9181C19.9809 36.9181 18.5215 38.3775 18.5215 40.1712C18.5215 41.965 19.9809 43.4244 21.7746 43.4244C23.5684 43.4244 25.0278 41.965 25.0278 40.1712C25.0278 38.3775 23.5684 36.9181 21.7746 36.9181Z" fill="#BEBEBE"/>
<path d="M40.2952 36.9181C38.5014 36.9181 37.042 38.3775 37.042 40.1712C37.042 41.965 38.5014 43.4244 40.2952 43.4244C42.0889 43.4244 43.5483 41.965 43.5483 40.1712C43.5483 38.3775 42.0889 36.9181 40.2952 36.9181Z" fill="#BEBEBE"/>
<path d="M58.8166 36.9181C57.0229 36.9181 55.5635 38.3775 55.5635 40.1712C55.5635 41.965 57.0229 43.4244 58.8166 43.4244C60.6104 43.4244 62.0698 41.965 62.0698 40.1712C62.0698 38.3775 60.6104 36.9181 58.8166 36.9181Z" fill="#BEBEBE"/>
<path d="M77.3371 36.9181C75.5434 36.9181 74.084 38.3775 74.084 40.1712C74.084 41.965 75.5434 43.4244 77.3371 43.4244C79.1309 43.4244 80.5903 41.965 80.5903 40.1712C80.5903 38.3775 79.1309 36.9181 77.3371 36.9181Z" fill="#BEBEBE"/>
<path d="M95.8586 36.9181C94.0649 36.9181 92.6055 38.3775 92.6055 40.1712C92.6055 41.965 94.0649 43.4244 95.8586 43.4244C97.6524 43.4244 99.1118 41.965 99.1118 40.1712C99.1118 38.3775 97.6524 36.9181 95.8586 36.9181Z" fill="#BEBEBE"/>
<path d="M114.379 36.9181C112.585 36.9181 111.126 38.3775 111.126 40.1712C111.126 41.965 112.585 43.4244 114.379 43.4244C116.173 43.4244 117.632 41.965 117.632 40.1712C117.632 38.3775 116.173 36.9181 114.379 36.9181Z" fill="#BEBEBE"/>
<path d="M3.25316 55.4392C1.45944 55.4392 0 56.8987 0 58.6924C0 60.4861 1.45944 61.9455 3.25316 61.9455C5.04688 61.9455 6.50632 60.4861 6.50632 58.6924C6.50632 56.8987 5.04688 55.4392 3.25316 55.4392Z" fill="#BEBEBE"/>
<path d="M21.7746 55.4392C19.9809 55.4392 18.5215 56.8987 18.5215 58.6924C18.5215 60.4861 19.9809 61.9455 21.7746 61.9455C23.5684 61.9455 25.0278 60.4861 25.0278 58.6924C25.0278 56.8987 23.5684 55.4392 21.7746 55.4392Z" fill="#BEBEBE"/>
<path d="M40.2952 55.4392C38.5014 55.4392 37.042 56.8987 37.042 58.6924C37.042 60.4861 38.5014 61.9455 40.2952 61.9455C42.0889 61.9455 43.5483 60.4861 43.5483 58.6924C43.5483 56.8987 42.0889 55.4392 40.2952 55.4392Z" fill="#BEBEBE"/>
<path d="M58.8166 55.4392C57.0229 55.4392 55.5635 56.8987 55.5635 58.6924C55.5635 60.4861 57.0229 61.9455 58.8166 61.9455C60.6104 61.9455 62.0698 60.4861 62.0698 58.6924C62.0698 56.8987 60.6104 55.4392 58.8166 55.4392Z" fill="#BEBEBE"/>
<path d="M77.3371 55.4392C75.5434 55.4392 74.084 56.8987 74.084 58.6924C74.084 60.4861 75.5434 61.9455 77.3371 61.9455C79.1309 61.9455 80.5903 60.4861 80.5903 58.6924C80.5903 56.8987 79.1309 55.4392 77.3371 55.4392Z" fill="#BEBEBE"/>
<path d="M95.8586 55.4392C94.0649 55.4392 92.6055 56.8987 92.6055 58.6924C92.6055 60.4861 94.0649 61.9455 95.8586 61.9455C97.6524 61.9455 99.1118 60.4861 99.1118 58.6924C99.1118 56.8987 97.6524 55.4392 95.8586 55.4392Z" fill="#BEBEBE"/>
<path d="M114.379 55.4392C112.585 55.4392 111.126 56.8987 111.126 58.6924C111.126 60.4861 112.585 61.9455 114.379 61.9455C116.173 61.9455 117.632 60.4861 117.632 58.6924C117.632 56.8987 116.173 55.4392 114.379 55.4392Z" fill="#BEBEBE"/>
<path d="M3.25316 73.9553C1.45944 73.9553 0 75.4148 0 77.2085C0 79.0022 1.45944 80.4617 3.25316 80.4617C5.04688 80.4617 6.50632 79.0022 6.50632 77.2085C6.50632 75.4148 5.04688 73.9553 3.25316 73.9553Z" fill="#BEBEBE"/>
<path d="M21.7746 73.9553C19.9809 73.9553 18.5215 75.4148 18.5215 77.2085C18.5215 79.0022 19.9809 80.4617 21.7746 80.4617C23.5684 80.4617 25.0278 79.0022 25.0278 77.2085C25.0278 75.4148 23.5684 73.9553 21.7746 73.9553Z" fill="#BEBEBE"/>
<path d="M40.2952 73.9553C38.5014 73.9553 37.042 75.4148 37.042 77.2085C37.042 79.0022 38.5014 80.4617 40.2952 80.4617C42.0889 80.4617 43.5483 79.0022 43.5483 77.2085C43.5483 75.4148 42.0889 73.9553 40.2952 73.9553Z" fill="#BEBEBE"/>
<path d="M58.8166 73.9553C57.0229 73.9553 55.5635 75.4148 55.5635 77.2085C55.5635 79.0022 57.0229 80.4617 58.8166 80.4617C60.6104 80.4617 62.0698 79.0022 62.0698 77.2085C62.0698 75.4148 60.6104 73.9553 58.8166 73.9553Z" fill="#BEBEBE"/>
<path d="M77.3371 73.9553C75.5434 73.9553 74.084 75.4148 74.084 77.2085C74.084 79.0022 75.5434 80.4617 77.3371 80.4617C79.1309 80.4617 80.5903 79.0022 80.5903 77.2085C80.5903 75.4148 79.1309 73.9553 77.3371 73.9553Z" fill="#BEBEBE"/>
<path d="M95.8586 73.9553C94.0649 73.9553 92.6055 75.4148 92.6055 77.2085C92.6055 79.0022 94.0649 80.4617 95.8586 80.4617C97.6524 80.4617 99.1118 79.0022 99.1118 77.2085C99.1118 75.4148 97.6524 73.9553 95.8586 73.9553Z" fill="#BEBEBE"/>
<path d="M114.379 73.9553C112.585 73.9553 111.126 75.4148 111.126 77.2085C111.126 79.0022 112.585 80.4617 114.379 80.4617C116.173 80.4617 117.632 79.0022 117.632 77.2085C117.632 75.4148 116.173 73.9553 114.379 73.9553Z" fill="#BEBEBE"/>
<path d="M3.25316 92.3568C1.45944 92.3568 0 93.8163 0 95.61C0 97.4037 1.45944 98.8631 3.25316 98.8631C5.04688 98.8631 6.50632 97.4037 6.50632 95.61C6.50632 93.8163 5.04688 92.3568 3.25316 92.3568Z" fill="#BEBEBE"/>
<path d="M21.7746 92.3568C19.9809 92.3568 18.5215 93.8163 18.5215 95.61C18.5215 97.4037 19.9809 98.8631 21.7746 98.8631C23.5684 98.8631 25.0278 97.4037 25.0278 95.61C25.0278 93.8163 23.5684 92.3568 21.7746 92.3568Z" fill="#BEBEBE"/>
<path d="M40.2952 92.3568C38.5014 92.3568 37.042 93.8163 37.042 95.61C37.042 97.4037 38.5014 98.8631 40.2952 98.8631C42.0889 98.8631 43.5483 97.4037 43.5483 95.61C43.5483 93.8163 42.0889 92.3568 40.2952 92.3568Z" fill="#BEBEBE"/>
<path d="M58.8166 92.3568C57.0229 92.3568 55.5635 93.8163 55.5635 95.61C55.5635 97.4037 57.0229 98.8631 58.8166 98.8631C60.6104 98.8631 62.0698 97.4037 62.0698 95.61C62.0698 93.8163 60.6104 92.3568 58.8166 92.3568Z" fill="#BEBEBE"/>
<path d="M77.3371 92.3568C75.5434 92.3568 74.084 93.8163 74.084 95.61C74.084 97.4037 75.5434 98.8631 77.3371 98.8631C79.1309 98.8631 80.5903 97.4037 80.5903 95.61C80.5903 93.8163 79.1309 92.3568 77.3371 92.3568Z" fill="#BEBEBE"/>
<path d="M95.8586 92.3568C94.0649 92.3568 92.6055 93.8163 92.6055 95.61C92.6055 97.4037 94.0649 98.8631 95.8586 98.8631C97.6524 98.8631 99.1118 97.4037 99.1118 95.61C99.1118 93.8163 97.6524 92.3568 95.8586 92.3568Z" fill="#BEBEBE"/>
<path d="M114.379 92.3568C112.585 92.3568 111.126 93.8163 111.126 95.61C111.126 97.4037 112.585 98.8631 114.379 98.8631C116.173 98.8631 117.632 97.4037 117.632 95.61C117.632 93.8163 116.173 92.3568 114.379 92.3568Z" fill="#BEBEBE"/>
<path d="M3.25316 110.994C1.45944 110.994 0 112.453 0 114.247C0 116.041 1.45944 117.5 3.25316 117.5C5.04688 117.5 6.50632 116.041 6.50632 114.247C6.50632 112.453 5.04688 110.994 3.25316 110.994Z" fill="#BEBEBE"/>
<path d="M21.7746 110.994C19.9809 110.994 18.5215 112.453 18.5215 114.247C18.5215 116.041 19.9809 117.5 21.7746 117.5C23.5684 117.5 25.0278 116.041 25.0278 114.247C25.0278 112.453 23.5684 110.994 21.7746 110.994Z" fill="#BEBEBE"/>
<path d="M40.2952 110.994C38.5014 110.994 37.042 112.453 37.042 114.247C37.042 116.041 38.5014 117.5 40.2952 117.5C42.0889 117.5 43.5483 116.041 43.5483 114.247C43.5483 112.453 42.0889 110.994 40.2952 110.994Z" fill="#BEBEBE"/>
<path d="M58.8166 110.994C57.0229 110.994 55.5635 112.453 55.5635 114.247C55.5635 116.041 57.0229 117.5 58.8166 117.5C60.6104 117.5 62.0698 116.041 62.0698 114.247C62.0698 112.453 60.6104 110.994 58.8166 110.994Z" fill="#BEBEBE"/>
<path d="M77.3371 110.994C75.5434 110.994 74.084 112.453 74.084 114.247C74.084 116.041 75.5434 117.5 77.3371 117.5C79.1309 117.5 80.5903 116.041 80.5903 114.247C80.5903 112.453 79.1309 110.994 77.3371 110.994Z" fill="#BEBEBE"/>
<path d="M95.8586 110.994C94.0649 110.994 92.6055 112.453 92.6055 114.247C92.6055 116.041 94.0649 117.5 95.8586 117.5C97.6524 117.5 99.1118 116.041 99.1118 114.247C99.1118 112.453 97.6524 110.994 95.8586 110.994Z" fill="#BEBEBE"/>
<path d="M114.379 110.994C112.585 110.994 111.126 112.453 111.126 114.247C111.126 116.041 112.585 117.5 114.379 117.5C116.173 117.5 117.632 116.041 117.632 114.247C117.632 112.453 116.173 110.994 114.379 110.994Z" fill="#BEBEBE"/>
<path d="M132.894 0C131.1 0 129.641 1.45944 129.641 3.25316C129.641 5.04688 131.1 6.50632 132.894 6.50632C134.687 6.50632 136.147 5.04688 136.147 3.25316C136.147 1.45944 134.687 0 132.894 0Z" fill="#BEBEBE"/>
<path d="M151.414 0C149.621 0 148.161 1.45944 148.161 3.25316C148.161 5.04688 149.621 6.50632 151.414 6.50632C153.208 6.50632 154.667 5.04688 154.667 3.25316C154.667 1.45944 153.208 0 151.414 0Z" fill="#BEBEBE"/>
<path d="M169.936 0C168.142 0 166.683 1.45944 166.683 3.25316C166.683 5.04688 168.142 6.50632 169.936 6.50632C171.729 6.50632 173.189 5.04688 173.189 3.25316C173.189 1.45944 171.729 0 169.936 0Z" fill="#BEBEBE"/>
<path d="M188.456 0C186.663 0 185.203 1.45944 185.203 3.25316C185.203 5.04688 186.663 6.50632 188.456 6.50632C190.25 6.50632 191.709 5.04688 191.709 3.25316C191.709 1.45944 190.25 0 188.456 0Z" fill="#BEBEBE"/>
<path d="M206.978 0C205.184 0 203.725 1.45944 203.725 3.25316C203.725 5.04688 205.184 6.50632 206.978 6.50632C208.771 6.50632 210.231 5.04688 210.231 3.25316C210.231 1.45944 208.771 0 206.978 0Z" fill="#BEBEBE"/>
<path d="M225.499 0C223.706 0 222.246 1.45944 222.246 3.25316C222.246 5.04688 223.706 6.50632 225.499 6.50632C227.293 6.50632 228.752 5.04688 228.752 3.25316C228.752 1.45944 227.293 0 225.499 0Z" fill="#BEBEBE"/>
<path d="M244.021 6.50632C245.814 6.50632 247.274 5.04688 247.274 3.25316C247.274 1.45944 245.814 0 244.021 0C242.227 0 240.768 1.45944 240.768 3.25316C240.768 5.04688 242.227 6.50632 244.021 6.50632Z" fill="#BEBEBE"/>
<path d="M132.894 18.5167C131.1 18.5167 129.641 19.9762 129.641 21.7699C129.641 23.5636 131.1 25.023 132.894 25.023C134.687 25.023 136.147 23.5636 136.147 21.7699C136.147 19.9762 134.687 18.5167 132.894 18.5167Z" fill="#BEBEBE"/>
<path d="M151.414 18.5167C149.621 18.5167 148.161 19.9762 148.161 21.7699C148.161 23.5636 149.621 25.023 151.414 25.023C153.208 25.023 154.667 23.5636 154.667 21.7699C154.667 19.9762 153.208 18.5167 151.414 18.5167Z" fill="#BEBEBE"/>
<path d="M169.936 18.5167C168.142 18.5167 166.683 19.9762 166.683 21.7699C166.683 23.5636 168.142 25.023 169.936 25.023C171.729 25.023 173.189 23.5636 173.189 21.7699C173.189 19.9762 171.729 18.5167 169.936 18.5167Z" fill="#BEBEBE"/>
<path d="M188.456 18.5167C186.663 18.5167 185.203 19.9762 185.203 21.7699C185.203 23.5636 186.663 25.023 188.456 25.023C190.25 25.023 191.709 23.5636 191.709 21.7699C191.709 19.9762 190.25 18.5167 188.456 18.5167Z" fill="#BEBEBE"/>
<path d="M206.978 18.5167C205.184 18.5167 203.725 19.9762 203.725 21.7699C203.725 23.5636 205.184 25.023 206.978 25.023C208.771 25.023 210.231 23.5636 210.231 21.7699C210.231 19.9762 208.771 18.5167 206.978 18.5167Z" fill="#BEBEBE"/>
<path d="M225.499 18.5167C223.706 18.5167 222.246 19.9762 222.246 21.7699C222.246 23.5636 223.706 25.023 225.499 25.023C227.293 25.023 228.752 23.5636 228.752 21.7699C228.752 19.9762 227.293 18.5167 225.499 18.5167Z" fill="#BEBEBE"/>
<path d="M244.021 18.5167C242.227 18.5167 240.768 19.9762 240.768 21.7699C240.768 23.5636 242.227 25.023 244.021 25.023C245.814 25.023 247.274 23.5636 247.274 21.7699C247.274 19.9762 245.814 18.5167 244.021 18.5167Z" fill="#BEBEBE"/>
<path d="M132.894 36.9181C131.1 36.9181 129.641 38.3775 129.641 40.1712C129.641 41.965 131.1 43.4244 132.894 43.4244C134.687 43.4244 136.147 41.965 136.147 40.1712C136.147 38.3775 134.687 36.9181 132.894 36.9181Z" fill="#BEBEBE"/>
<path d="M151.414 36.9181C149.621 36.9181 148.161 38.3775 148.161 40.1712C148.161 41.965 149.621 43.4244 151.414 43.4244C153.208 43.4244 154.667 41.965 154.667 40.1712C154.667 38.3775 153.208 36.9181 151.414 36.9181Z" fill="#BEBEBE"/>
<path d="M169.936 36.9181C168.142 36.9181 166.683 38.3775 166.683 40.1712C166.683 41.965 168.142 43.4244 169.936 43.4244C171.729 43.4244 173.189 41.965 173.189 40.1712C173.189 38.3775 171.729 36.9181 169.936 36.9181Z" fill="#BEBEBE"/>
<path d="M188.456 36.9181C186.663 36.9181 185.203 38.3775 185.203 40.1712C185.203 41.965 186.663 43.4244 188.456 43.4244C190.25 43.4244 191.709 41.965 191.709 40.1712C191.709 38.3775 190.25 36.9181 188.456 36.9181Z" fill="#BEBEBE"/>
<path d="M206.978 36.9181C205.184 36.9181 203.725 38.3775 203.725 40.1712C203.725 41.965 205.184 43.4244 206.978 43.4244C208.771 43.4244 210.231 41.965 210.231 40.1712C210.231 38.3775 208.771 36.9181 206.978 36.9181Z" fill="#BEBEBE"/>
<path d="M225.499 36.9181C223.706 36.9181 222.246 38.3775 222.246 40.1712C222.246 41.965 223.706 43.4244 225.499 43.4244C227.293 43.4244 228.752 41.965 228.752 40.1712C228.752 38.3775 227.293 36.9181 225.499 36.9181Z" fill="#BEBEBE"/>
<path d="M244.021 36.9181C242.227 36.9181 240.768 38.3775 240.768 40.1712C240.768 41.965 242.227 43.4244 244.021 43.4244C245.814 43.4244 247.274 41.965 247.274 40.1712C247.274 38.3775 245.814 36.9181 244.021 36.9181Z" fill="#BEBEBE"/>
<path d="M132.894 55.4392C131.1 55.4392 129.641 56.8987 129.641 58.6924C129.641 60.4861 131.1 61.9455 132.894 61.9455C134.687 61.9455 136.147 60.4861 136.147 58.6924C136.147 56.8987 134.687 55.4392 132.894 55.4392Z" fill="#BEBEBE"/>
<path d="M151.414 55.4392C149.621 55.4392 148.161 56.8987 148.161 58.6924C148.161 60.4861 149.621 61.9455 151.414 61.9455C153.208 61.9455 154.667 60.4861 154.667 58.6924C154.667 56.8987 153.208 55.4392 151.414 55.4392Z" fill="#BEBEBE"/>
<path d="M169.936 55.4392C168.142 55.4392 166.683 56.8987 166.683 58.6924C166.683 60.4861 168.142 61.9455 169.936 61.9455C171.729 61.9455 173.189 60.4861 173.189 58.6924C173.189 56.8987 171.729 55.4392 169.936 55.4392Z" fill="#BEBEBE"/>
<path d="M188.456 55.4392C186.663 55.4392 185.203 56.8987 185.203 58.6924C185.203 60.4861 186.663 61.9455 188.456 61.9455C190.25 61.9455 191.709 60.4861 191.709 58.6924C191.709 56.8987 190.25 55.4392 188.456 55.4392Z" fill="#BEBEBE"/>
<path d="M206.978 55.4392C205.184 55.4392 203.725 56.8987 203.725 58.6924C203.725 60.4861 205.184 61.9455 206.978 61.9455C208.771 61.9455 210.231 60.4861 210.231 58.6924C210.231 56.8987 208.771 55.4392 206.978 55.4392Z" fill="#BEBEBE"/>
<path d="M225.499 55.4392C223.706 55.4392 222.246 56.8987 222.246 58.6924C222.246 60.4861 223.706 61.9455 225.499 61.9455C227.293 61.9455 228.752 60.4861 228.752 58.6924C228.752 56.8987 227.293 55.4392 225.499 55.4392Z" fill="#BEBEBE"/>
<path d="M244.021 55.4392C242.227 55.4392 240.768 56.8987 240.768 58.6924C240.768 60.4861 242.227 61.9455 244.021 61.9455C245.814 61.9455 247.274 60.4861 247.274 58.6924C247.274 56.8987 245.814 55.4392 244.021 55.4392Z" fill="#BEBEBE"/>
<path d="M132.894 73.9553C131.1 73.9553 129.641 75.4148 129.641 77.2085C129.641 79.0022 131.1 80.4617 132.894 80.4617C134.687 80.4617 136.147 79.0022 136.147 77.2085C136.147 75.4148 134.687 73.9553 132.894 73.9553Z" fill="#BEBEBE"/>
<path d="M151.414 73.9553C149.621 73.9553 148.161 75.4148 148.161 77.2085C148.161 79.0022 149.621 80.4617 151.414 80.4617C153.208 80.4617 154.667 79.0022 154.667 77.2085C154.667 75.4148 153.208 73.9553 151.414 73.9553Z" fill="#BEBEBE"/>
<path d="M169.936 73.9553C168.142 73.9553 166.683 75.4148 166.683 77.2085C166.683 79.0022 168.142 80.4617 169.936 80.4617C171.729 80.4617 173.189 79.0022 173.189 77.2085C173.189 75.4148 171.729 73.9553 169.936 73.9553Z" fill="#BEBEBE"/>
<path d="M188.456 73.9553C186.663 73.9553 185.203 75.4148 185.203 77.2085C185.203 79.0022 186.663 80.4617 188.456 80.4617C190.25 80.4617 191.709 79.0022 191.709 77.2085C191.709 75.4148 190.25 73.9553 188.456 73.9553Z" fill="#BEBEBE"/>
<path d="M206.978 73.9553C205.184 73.9553 203.725 75.4148 203.725 77.2085C203.725 79.0022 205.184 80.4617 206.978 80.4617C208.771 80.4617 210.231 79.0022 210.231 77.2085C210.231 75.4148 208.771 73.9553 206.978 73.9553Z" fill="#BEBEBE"/>
<path d="M225.499 73.9553C223.706 73.9553 222.246 75.4148 222.246 77.2085C222.246 79.0022 223.706 80.4617 225.499 80.4617C227.293 80.4617 228.752 79.0022 228.752 77.2085C228.752 75.4148 227.293 73.9553 225.499 73.9553Z" fill="#BEBEBE"/>
<path d="M244.021 73.9553C242.227 73.9553 240.768 75.4148 240.768 77.2085C240.768 79.0022 242.227 80.4617 244.021 80.4617C245.814 80.4617 247.274 79.0022 247.274 77.2085C247.274 75.4148 245.814 73.9553 244.021 73.9553Z" fill="#BEBEBE"/>
<path d="M132.894 92.3568C131.1 92.3568 129.641 93.8163 129.641 95.61C129.641 97.4037 131.1 98.8631 132.894 98.8631C134.687 98.8631 136.147 97.4037 136.147 95.61C136.147 93.8163 134.687 92.3568 132.894 92.3568Z" fill="#BEBEBE"/>
<path d="M151.414 92.3568C149.621 92.3568 148.161 93.8163 148.161 95.61C148.161 97.4037 149.621 98.8631 151.414 98.8631C153.208 98.8631 154.667 97.4037 154.667 95.61C154.667 93.8163 153.208 92.3568 151.414 92.3568Z" fill="#BEBEBE"/>
<path d="M169.936 92.3568C168.142 92.3568 166.683 93.8163 166.683 95.61C166.683 97.4037 168.142 98.8631 169.936 98.8631C171.729 98.8631 173.189 97.4037 173.189 95.61C173.189 93.8163 171.729 92.3568 169.936 92.3568Z" fill="#BEBEBE"/>
<path d="M188.456 92.3568C186.663 92.3568 185.203 93.8163 185.203 95.61C185.203 97.4037 186.663 98.8631 188.456 98.8631C190.25 98.8631 191.709 97.4037 191.709 95.61C191.709 93.8163 190.25 92.3568 188.456 92.3568Z" fill="#BEBEBE"/>
<path d="M206.978 92.3568C205.184 92.3568 203.725 93.8163 203.725 95.61C203.725 97.4037 205.184 98.8631 206.978 98.8631C208.771 98.8631 210.231 97.4037 210.231 95.61C210.231 93.8163 208.771 92.3568 206.978 92.3568Z" fill="#BEBEBE"/>
<path d="M225.499 92.3568C223.706 92.3568 222.246 93.8163 222.246 95.61C222.246 97.4037 223.706 98.8631 225.499 98.8631C227.293 98.8631 228.752 97.4037 228.752 95.61C228.752 93.8163 227.293 92.3568 225.499 92.3568Z" fill="#BEBEBE"/>
<path d="M244.021 92.3568C242.227 92.3568 240.768 93.8163 240.768 95.61C240.768 97.4037 242.227 98.8631 244.021 98.8631C245.814 98.8631 247.274 97.4037 247.274 95.61C247.274 93.8163 245.814 92.3568 244.021 92.3568Z" fill="#BEBEBE"/>
<path d="M132.894 110.994C131.1 110.994 129.641 112.453 129.641 114.247C129.641 116.041 131.1 117.5 132.894 117.5C134.687 117.5 136.147 116.041 136.147 114.247C136.147 112.453 134.687 110.994 132.894 110.994Z" fill="#BEBEBE"/>
<path d="M151.414 110.994C149.621 110.994 148.161 112.453 148.161 114.247C148.161 116.041 149.621 117.5 151.414 117.5C153.208 117.5 154.667 116.041 154.667 114.247C154.667 112.453 153.208 110.994 151.414 110.994Z" fill="#BEBEBE"/>
<path d="M169.936 110.994C168.142 110.994 166.683 112.453 166.683 114.247C166.683 116.041 168.142 117.5 169.936 117.5C171.729 117.5 173.189 116.041 173.189 114.247C173.189 112.453 171.729 110.994 169.936 110.994Z" fill="#BEBEBE"/>
<path d="M188.456 110.994C186.663 110.994 185.203 112.453 185.203 114.247C185.203 116.041 186.663 117.5 188.456 117.5C190.25 117.5 191.709 116.041 191.709 114.247C191.709 112.453 190.25 110.994 188.456 110.994Z" fill="#BEBEBE"/>
<path d="M206.978 110.994C205.184 110.994 203.725 112.453 203.725 114.247C203.725 116.041 205.184 117.5 206.978 117.5C208.771 117.5 210.231 116.041 210.231 114.247C210.231 112.453 208.771 110.994 206.978 110.994Z" fill="#BEBEBE"/>
<path d="M225.499 110.994C223.706 110.994 222.246 112.453 222.246 114.247C222.246 116.041 223.706 117.5 225.499 117.5C227.293 117.5 228.752 116.041 228.752 114.247C228.752 112.453 227.293 110.994 225.499 110.994Z" fill="#BEBEBE"/>
<path d="M244.021 110.994C242.227 110.994 240.768 112.453 240.768 114.247C240.768 116.041 242.227 117.5 244.021 117.5C245.814 117.5 247.274 116.041 247.274 114.247C247.274 112.453 245.814 110.994 244.021 110.994Z" fill="#BEBEBE"/>
</svg>
