<svg width="149" height="25" viewBox="0 0 149 25" fill="none" xmlns="http://www.w3.org/2000/svg">
<path d="M47.5129 23.0155C47.3253 23.0025 47.2166 22.8453 47.082 22.7288C46.7638 22.454 46.723 22.4578 46.3652 22.7196C46.2792 22.7826 46.2062 22.8725 46.115 22.9206C46.065 22.9471 45.9813 22.9293 45.9298 22.8969C45.9096 22.8844 45.9202 22.7688 45.9439 22.7154C46.0202 22.5439 45.9664 22.3417 45.837 22.3567C45.4284 22.404 45.407 21.8813 45.1067 21.7909C45.0259 21.7667 45.0213 21.6884 45.059 21.5984C45.1394 21.4059 45.1273 21.2255 44.9759 21.0785C44.4979 20.614 44.4125 19.9722 44.3433 19.3209C44.3267 19.1642 44.2976 18.9831 44.426 18.8969C44.786 18.655 44.8 18.2082 44.957 17.8465C45.1568 17.8425 45.357 17.8444 45.5561 17.8294C45.5916 17.8266 45.623 17.7534 45.6564 17.7125C45.629 17.6921 45.6021 17.6545 45.5744 17.654C45.3538 17.6488 45.0981 17.5306 44.9776 17.8725C44.5439 17.7896 44.1862 18.0674 43.798 18.1955C43.6366 18.2489 43.4863 18.354 43.3392 18.4514C43.1185 18.5977 42.9537 18.4731 42.7712 18.3469C42.5165 18.1706 42.3132 18.2989 42.326 18.6253C42.3318 18.7728 42.3711 18.9274 42.4281 19.061C42.5045 19.2402 42.4463 19.3737 42.3286 19.4561C42.0103 19.6793 41.63 19.7738 41.3461 20.0832C41.291 20.1431 40.993 19.9911 40.9816 20.021C40.8047 20.485 40.3246 20.4023 40.057 20.694C39.9056 20.859 39.7058 20.9253 39.4873 20.9277C39.3899 20.9287 39.2867 20.9731 39.1974 21.0229C38.9804 21.1443 39.0076 21.6595 38.5917 21.4774C38.2785 21.3403 38.1742 21.823 37.8814 21.8148C37.6359 21.8081 37.5217 21.9907 37.5039 22.2629C37.4897 22.4772 37.3594 22.6838 37.2009 22.6831C36.6492 22.6808 36.1891 23.1656 35.6151 23.0227C35.3747 22.963 35.1406 23.0453 34.9126 23.1599C34.845 23.1938 34.6876 23.1405 34.6506 23.0724C34.6129 23.0032 34.6496 22.851 34.6963 22.7639C34.7464 22.6696 34.8555 22.6173 34.9186 22.5285C34.9436 22.4935 34.9263 22.3617 34.9073 22.3555C34.8112 22.3243 34.7056 22.2966 34.6081 22.3103C34.2489 22.3607 34.1818 21.8354 33.8239 21.8399C33.5272 21.8437 33.231 21.8037 32.9338 21.6407C32.7028 21.5138 32.5244 21.4741 32.5264 21.1285C32.5277 20.8865 32.2745 20.9121 32.1436 20.8051C31.8656 20.5783 31.8303 20.3524 32.0257 20.0179C32.0822 19.9213 32.1623 19.8424 32.2211 19.7473C32.2884 19.6388 32.2714 19.5165 32.1827 19.4455C32.1043 19.3827 32.0003 19.3458 31.9036 19.3318C31.8453 19.3233 31.7605 19.3607 31.7199 19.4107C31.4811 19.7044 31.244 19.9667 30.8388 19.7908C30.7628 19.7577 30.7249 19.855 30.7712 19.9352C30.9146 20.1846 30.8451 20.3839 30.634 20.5163C30.396 20.6656 30.1738 20.8526 29.8878 20.8953C29.4704 20.9578 29.1018 21.1384 28.8144 21.5047C28.6746 21.6831 28.5001 21.8186 28.2752 21.7987C27.9562 21.7707 27.7432 21.9061 27.6524 22.2596C27.2542 22.5546 26.8605 22.8578 26.4561 23.1413C26.2617 23.2776 26.0607 23.1661 25.8576 23.1197C25.7203 23.0882 25.607 23.2161 25.5866 23.3827C25.575 23.4796 25.6874 23.6154 25.5251 23.6578C25.1603 23.753 24.8379 24.0523 24.4372 23.9667C24.1712 23.9099 23.9866 24.1491 23.7488 24.1735C23.6132 24.1874 23.4789 24.1702 23.4072 23.9942C23.274 23.6663 23.2935 23.9135 23.2451 24.0418C23.1486 24.2975 22.9669 24.4199 22.7713 24.3486C22.5109 24.2534 22.2619 24.1337 21.9786 24.1239C21.7907 24.1173 21.7693 24.0072 21.8546 23.695C21.9455 23.3626 21.9332 23.3013 21.7492 23.2499C21.3908 23.1497 21.0516 23.0446 20.6651 23.2371C20.3774 23.3803 20.19 23.1999 20.0671 22.8436C20.055 22.8082 20.0624 22.7644 20.0504 22.7291C19.971 22.4942 19.83 22.3406 19.5991 22.314C19.4962 22.302 19.3928 22.2961 19.2899 22.2849C19.092 22.2631 18.8428 22.368 18.7251 22.124C18.6463 21.9608 18.6874 21.7468 18.7752 21.5645C18.8357 21.4391 18.7566 21.3391 18.6837 21.2674C18.4482 21.0357 18.4297 20.7489 18.4509 20.4213C18.4725 20.0915 18.6728 19.7589 18.4642 19.4248C18.5817 18.8834 18.4031 18.2724 18.7563 17.7884C18.9639 17.5039 18.7297 17.082 19.0245 16.8093C19.1049 16.735 18.9908 16.5276 18.8825 16.4173C18.7912 16.3245 18.7031 16.3462 18.6105 16.4068C18.24 16.6492 17.8555 16.7878 17.428 16.6105C17.3958 16.597 17.3395 16.5655 17.3354 16.5726C17.2998 16.6336 17.2454 16.7039 17.2492 16.7672C17.2732 17.1658 17.278 17.1682 17.0494 17.173C16.8781 17.1767 16.7063 17.1866 16.5358 17.1739C16.3076 17.1571 16.1423 17.2477 16.0115 17.4618C15.8498 17.7264 15.6456 17.9274 15.3295 17.9035C15.3018 17.9014 15.2715 17.9424 15.2425 17.9634C15.2913 17.9968 15.3372 18.0382 15.3895 18.0621C15.483 18.1047 15.5892 18.1211 15.6724 18.1803C15.7102 18.2071 15.7124 18.3089 15.7173 18.378C15.7192 18.405 15.6889 18.452 15.6646 18.4611C15.5693 18.4977 15.471 18.5458 15.3729 18.5484C14.909 18.5609 14.4836 18.644 14.2396 19.1692C14.2167 19.2186 14.0988 19.2674 14.0602 19.2437C13.7088 19.029 13.5774 19.2719 13.4437 19.5752C13.4062 19.6606 13.2556 19.6742 13.1926 19.756C13.0102 19.9928 12.7136 19.7206 12.536 19.9635C12.4057 20.142 12.2725 20.3122 12.0791 20.4249C11.7189 20.6351 11.4243 20.9795 10.9564 20.9429C10.7734 20.9287 10.5466 21.0645 10.3946 21.2064C9.81025 21.7521 9.14116 22.132 8.47668 22.5252C8.29483 22.6329 8.05698 22.7151 7.95867 22.89C7.6222 23.4878 7.10511 23.5182 6.59263 23.4649C6.13078 23.4166 5.79431 23.5643 5.49015 23.9379C5.3566 24.102 5.16337 24.2097 4.98659 24.3216C4.90428 24.3737 4.7689 24.4299 4.70459 24.3896C4.35165 24.1675 4.05134 24.4234 3.73949 24.5094C3.59779 24.5484 3.47317 24.5998 3.36086 24.4895C3.00885 24.1446 2.55576 24.0873 2.13837 23.9312C1.9956 23.878 1.89559 23.8003 1.85559 23.6358C1.7302 23.1202 1.36773 23.007 0.978801 23.0743C0.749411 23.114 0.580176 23.0432 0.396941 22.9499C0.260784 22.8808 0.232014 22.6656 0.347093 22.5738C0.43048 22.5073 0.534483 22.4743 0.619254 22.4095C0.784181 22.2835 0.805105 22.1507 0.648639 22.0846C0.323862 21.9473 0.322016 21.6652 0.308015 21.36C0.285707 20.8775 0.255399 20.399 0.0406242 19.9563C-0.0572244 19.7546 0.0289316 19.5813 0.221398 19.5131C0.336785 19.4722 0.504174 19.5354 0.539098 19.3522C0.546175 19.315 0.372171 19.2484 0.300785 19.1725C0.260168 19.1294 0.226629 19.0261 0.244475 18.9732C0.426634 18.4341 0.62587 17.9021 0.806797 17.3625C0.864183 17.1914 1.03019 17.1777 1.09604 17.069C1.15234 16.9762 1.08342 16.7955 1.0965 16.6568C1.10127 16.6078 1.1805 16.5429 1.23373 16.5313C1.29481 16.5179 1.36666 16.5491 1.43051 16.5726C1.62513 16.6443 1.85221 16.7814 2.00006 16.5757C2.05775 16.4956 1.88944 16.2392 1.87929 16.0591C1.86913 15.8801 1.75928 15.7929 1.69559 15.663C1.44666 15.1556 1.44881 15.1514 1.8879 14.753C1.99375 14.657 2.14991 14.6047 2.21606 14.4852C2.31499 14.3067 2.4813 14.1525 2.4153 13.8779C2.34053 13.5668 2.50099 13.2714 2.61638 13.0204C2.75346 12.7219 3.01531 12.4966 3.22132 12.238C3.41979 11.9885 3.34148 11.5216 3.72841 11.4198C3.94826 10.9111 4.44258 10.6494 4.62335 10.0765C4.71582 9.78353 5.04106 9.57872 5.2726 9.3488C5.35014 9.27193 5.46507 9.25964 5.53691 9.38499C5.61076 9.51414 5.67369 9.65109 5.74554 9.7818C5.79815 9.87754 5.85754 9.96861 5.91385 10.0619C6.05093 9.94627 6.19555 9.8398 6.32232 9.71116C6.38648 9.64589 6.36355 9.56002 6.29416 9.52799C6.2317 9.49908 6.1657 9.47086 6.09924 9.4629C5.832 9.43104 5.81338 9.17031 5.72584 8.96896C5.68753 8.88066 5.69723 8.82249 5.78461 8.78561C5.84862 8.75878 5.91323 8.73194 5.9797 8.71498C6.11093 8.68139 6.34801 8.68035 6.3594 8.62131C6.46309 8.08461 7.00003 8.41633 7.19111 8.06695C7.3165 7.83773 7.52589 7.65646 7.61497 7.41495C7.75712 7.02956 8.00652 6.89919 8.33699 6.86924C8.43991 6.85989 8.5433 6.85487 8.64653 6.84933C8.84161 6.83912 8.96685 6.7091 9.03916 6.52454C9.09393 6.38482 9.09947 6.22087 9.15439 6.08133C9.32532 5.64729 9.52871 5.21066 9.99887 5.15439C10.4373 5.10176 10.5963 4.51624 11.0531 4.51918C11.1083 4.5197 11.1717 4.35298 11.2181 4.25585C11.2646 4.15821 11.2908 3.96343 11.3328 3.96101C11.7383 3.93764 11.8812 3.4411 12.288 3.35471C12.6697 3.27369 13.0405 3.01659 13.3843 2.75049C13.5716 2.60558 13.5879 2.52923 13.4937 2.32494C13.4613 2.25465 13.5114 2.08602 13.5728 2.01884C13.9114 1.64748 14.3244 1.42068 14.7918 1.58238C15.1173 1.69509 15.4658 1.44734 15.7618 1.71448C16.259 1.47799 16.8583 1.61666 17.3018 1.13588C17.4343 0.992358 17.6512 0.91445 17.7971 0.746687C17.8758 0.655967 17.9858 0.640732 18.0591 0.743398C18.2035 0.94596 18.4652 1.08256 18.4108 1.40925C18.3509 1.76884 18.3245 2.15077 17.9937 2.36666C17.5188 2.67656 17.0504 2.99928 16.5726 3.30346C16.3307 3.45755 16.1281 3.66236 15.9106 3.85073C15.1235 4.53199 14.3948 5.30796 13.5102 5.83531C13.2077 6.01554 13.0206 6.22087 13.0191 6.63067C13.0183 6.87461 12.8234 6.90993 12.6417 6.912C12.4716 6.91374 12.276 6.88984 12.2452 7.15335C12.2066 7.48368 12.0503 7.65594 11.7625 7.60625C11.4511 7.55241 11.2249 7.70044 11.0217 7.92325C10.6263 8.35677 10.2433 8.805 9.84487 9.23506C9.62179 9.47588 9.39855 9.73003 9.13777 9.90888C8.89131 10.0779 8.7013 10.2811 8.55622 10.551C8.4116 10.8197 8.23668 11.0569 8.00682 11.2397C7.92359 11.3059 7.76405 11.4087 7.7742 11.4414C7.9019 11.85 7.51589 11.8429 7.39235 12.0347C6.55032 13.3407 6.44094 13.5356 5.56922 15.6232C5.45384 15.8997 5.27614 16.1422 5.14491 16.4114C5.01259 16.6827 4.93613 16.9958 4.77443 17.2395C4.54381 17.587 4.65243 17.9933 4.54751 18.3531C4.45135 18.6827 4.22565 18.9913 4.2115 19.3176C4.19396 19.7201 3.96795 20.0382 3.97072 20.4327C3.97303 20.7814 3.92749 21.1306 3.93134 21.4791C3.9338 21.7082 3.97565 21.939 4.01995 22.1642C4.0538 22.3372 4.28504 22.495 4.42196 22.4538C4.62028 22.3941 4.82167 22.3392 5.01183 22.2542C5.55353 22.0127 6.08016 21.7231 6.63171 21.516C7.23311 21.2901 7.65051 20.748 8.20467 20.4506C8.42022 20.0543 8.815 19.9746 9.14116 19.7705C9.3464 19.642 9.53086 19.4717 9.72471 19.3202C10.2481 19.4121 10.5823 18.9952 10.9507 18.7094C11.3157 18.4262 11.6352 18.069 11.9765 17.7466C12.1883 17.5463 12.3974 17.345 12.7031 17.3502C12.8014 17.3519 12.9157 17.3244 12.9969 17.2653C13.7724 16.7021 14.5594 16.1644 15.3992 15.7271C15.5156 15.6663 15.5982 15.5183 15.6899 15.4038C15.7355 15.3469 15.7549 15.2328 15.8052 15.2158C16.4067 15.012 16.7873 14.4199 17.3226 14.1258C17.6011 13.9727 17.8609 13.7827 18.118 13.6069C18.4395 13.387 18.7519 13.1504 19.0823 12.9402C19.4071 12.7335 19.6927 12.4445 19.9807 12.172C20.0482 12.108 20.0531 11.9631 20.0934 11.8587C20.1619 11.6814 20.2128 11.4876 20.3127 11.3355C20.4657 11.1019 20.6542 10.8976 20.8278 10.6809C20.7287 10.3787 20.9596 10.1843 21.0322 9.94143C21.1192 9.65091 21.2902 9.39382 21.4025 9.1111C21.5175 8.82162 21.7473 8.63239 21.8879 8.39313C22.0492 8.11889 22.1966 8.03215 22.452 8.03613C22.647 8.03925 22.7727 7.92568 22.8084 7.70217C22.8346 7.5396 22.9167 7.42828 23.0424 7.34292C23.6641 6.92066 24.1492 6.3431 24.5805 5.68902C24.8756 5.24165 25.2659 4.92794 25.8077 4.9688C26.034 4.98576 26.0854 4.79376 26.1134 4.59415C26.1448 4.37064 26.137 4.15717 26.4042 4.05502C26.5836 3.98646 26.777 3.79775 26.8584 3.60609C27.0171 3.23265 27.2645 2.99131 27.5547 2.77144C27.6335 2.71171 27.7252 2.59467 27.7282 2.50049C27.7439 2.01278 27.9946 1.91479 28.3539 1.99132C28.6358 2.05139 28.9098 2.01417 29.1663 1.89713C29.3758 1.80174 29.5589 1.82217 29.7601 1.90596C29.8438 1.94076 29.9717 1.80797 30.0351 1.95375C30.0938 2.08896 30.1351 2.2382 30.16 2.3864C30.1797 2.5043 29.9752 2.67362 29.8846 2.62566C29.7294 2.54325 29.5811 2.44388 29.4232 2.36891C29.2118 2.26832 29.2209 2.50205 29.1527 2.61372C29.05 2.78183 29.088 2.87081 29.2666 2.93158C29.4244 2.98525 29.5527 3.1196 29.7394 2.98317C29.8481 2.90371 30.0046 2.91185 30.1325 2.85887C30.2878 2.79429 30.4345 2.63068 30.6049 2.78494C30.7622 2.92708 30.9911 2.94561 31.0922 3.18885C31.2637 3.60159 31.5188 3.94803 31.5639 4.45201C31.6011 4.86752 31.5982 5.21551 31.3337 5.48923C31.1691 5.65958 31.0728 5.81021 31.0662 6.07008C31.0485 6.77402 30.5378 7.0789 30.1269 7.45598C30.0541 7.52263 29.9586 7.55206 29.842 7.49736C29.6863 7.42447 29.4001 7.20702 29.5498 7.70684C29.315 7.82925 29.0814 7.99164 28.8124 7.9236C28.6696 7.88742 28.5547 7.87183 28.4267 7.96359C28.3215 8.03925 28.2659 8.20043 28.3346 8.31834C28.3913 8.41564 28.467 8.50029 28.5158 8.60192C28.611 8.80015 28.4236 9.36456 28.2479 9.33599C27.8579 9.27297 27.5705 9.75254 27.1704 9.54686C27.1315 9.52695 27.0296 9.58512 26.9988 9.63793C26.9393 9.74025 26.9627 9.85365 27.0425 9.94489C27.0908 10.0003 27.1447 10.0519 27.1839 10.1147C27.2345 10.1956 27.3475 10.297 27.1913 10.3734C26.8778 10.5269 26.6116 10.6963 26.4033 11.0514C26.2505 11.3121 25.864 11.3834 25.6436 11.6142C25.4091 11.8597 25.0377 11.6777 24.8383 12.0623C24.6932 12.3419 24.3848 12.5141 24.1483 12.7333C24.0952 12.7825 24.0218 12.8808 23.9869 12.8666C23.6414 12.7245 23.5666 13.0917 23.5563 13.2605C23.5383 13.5526 23.6692 13.8616 23.2955 13.9769C23.4103 14.4991 22.9977 14.8829 23.0067 15.3822C23.0115 15.6478 23.0283 15.9419 22.7332 16.0747C22.7116 16.0844 22.7046 16.217 22.7307 16.2643C22.8846 16.5429 22.527 16.7646 22.6675 17.0299C22.7797 17.2418 22.7809 17.4698 22.7893 17.7039C22.7993 17.984 22.7933 18.2103 22.5333 18.3974C22.3469 18.5318 22.2493 18.819 22.1039 19.0307C22.0181 19.1557 22.0659 19.2736 22.1492 19.3211C22.4066 19.4681 22.3518 19.7923 22.4856 20.0032C22.686 20.3188 22.6146 20.5804 22.3795 20.8219C22.3289 20.8737 22.2841 20.9353 22.2463 20.9996C22.1609 21.1441 22.1873 21.293 22.2575 21.4313C22.3207 21.5558 22.4869 21.5574 22.619 21.4261C22.825 21.2215 23.0138 20.994 23.2267 20.7998C23.3571 20.6808 23.3854 20.8439 23.4223 20.9395C23.4355 20.9741 23.4398 21.0157 23.4395 21.0537C23.4378 21.2508 23.5395 21.337 23.6951 21.3091C23.804 21.2895 23.8261 21.1734 23.8337 21.0489C23.8398 20.9473 23.9091 20.7593 23.9241 20.7625C24.3974 20.8652 24.6466 20.4514 24.9817 20.2224C25.1746 20.0903 25.2977 19.9719 25.3328 19.7099C25.3623 19.4897 25.5776 19.4487 25.728 19.387C26.4496 19.0911 26.4521 19.0951 26.7762 18.6571C27.165 18.132 27.6081 17.7324 28.2733 17.832C28.5386 17.8716 28.4701 17.6902 28.4767 17.488C28.4846 17.247 28.7046 17.1147 28.8861 17.0004C29.04 16.9037 29.1844 16.8135 29.1833 16.5789C29.1813 16.1383 29.4077 15.9613 29.7709 15.9549C29.9432 15.9518 30.1174 15.9752 30.2875 15.9535C30.4072 15.9385 30.4278 15.8103 30.4078 15.6916C30.3895 15.5834 30.3397 15.4783 30.3381 15.3711C30.3365 15.2472 30.5509 15.1642 30.6491 15.2385C30.7086 15.2833 30.6908 15.4856 30.8365 15.3559C30.7575 14.9057 31.1474 14.8029 31.3249 14.5503C31.5757 14.193 31.9956 14.0236 32.1807 13.5681C32.2419 13.4172 32.4482 13.3389 32.591 13.2321C32.7904 13.0829 33.0288 12.9752 33.1834 12.7816C33.3648 12.5546 33.5696 12.5115 33.8104 12.4686C34.0447 12.4269 34.2712 12.3225 34.4975 12.2342C34.5912 12.1978 34.7269 12.1552 34.7558 12.0754C34.919 11.6234 35.3293 11.5375 35.632 11.2991C35.8627 11.1173 36.0617 10.9598 36.1111 10.6005C36.1555 10.2764 36.4335 10.1146 36.6663 9.94852C36.7206 9.90992 36.8022 9.92377 36.8648 9.89537C37.0219 9.82439 37.1996 9.77609 37.3249 9.6587C37.5466 9.4513 37.2094 9.47623 37.2036 9.35555C37.2026 9.33686 37.2368 9.30362 37.2591 9.29738C37.4397 9.24787 37.5956 9.11456 37.6416 8.93987C37.734 8.58807 38.0785 8.48471 38.176 8.12079C38.3233 7.57215 38.6802 7.21204 39.2014 7.09171C39.4582 7.03233 39.6245 6.83894 39.721 6.57423C39.7953 6.37028 39.7598 6.144 39.9555 5.96308C40.401 5.55173 40.6435 4.91063 41.1852 4.58999C41.6175 4.33393 41.96 3.92413 42.2269 3.48335C42.4461 3.12116 42.7317 2.85402 42.9791 2.53598C43.1803 2.27733 43.2523 2.32251 43.4048 2.59069C43.4659 2.69803 43.7202 2.68851 43.8873 2.69232C44.1571 2.69838 44.3687 2.80676 44.4462 3.09986C44.5419 3.46188 44.724 3.60609 45.059 3.71118C45.3759 3.81073 45.6444 4.09207 46.0101 3.92015C46.0308 3.91046 46.0964 3.94958 46.0959 3.9643C46.0792 4.54359 46.6296 4.71914 46.7738 5.17863C46.809 5.29099 46.7549 5.46204 46.6602 5.4501C46.2653 5.40024 46.4264 5.94386 46.1592 6.0119C45.971 6.39192 45.939 6.89694 45.4681 7.05276C45.4018 7.07475 45.4428 7.24736 45.4738 7.3637C45.5696 7.7245 45.5622 7.75099 45.2448 7.80466C45.0273 7.84154 44.8414 7.87183 44.7722 8.153C44.7573 8.21394 44.6844 8.26744 44.6276 8.3031C43.3916 9.07993 43.3929 9.08045 42.7043 10.3658C42.6174 10.528 42.5252 10.7425 42.3892 10.8052C41.9791 10.9941 41.7478 11.3796 41.4932 11.7361C41.3823 11.8916 41.2643 12.0119 41.1215 12.1225C40.9826 12.2302 40.8419 12.3568 40.7469 12.5101C40.5735 12.7896 40.5059 13.176 40.1209 13.2146C40.0622 13.391 40.0324 13.5905 39.9384 13.7385C39.7861 13.9783 39.4396 14.0226 39.4116 14.4026C39.3833 14.7866 39.0911 14.9875 38.9073 15.26C38.7413 15.5058 38.5253 15.708 38.3513 15.9478C38.1443 16.233 37.9402 16.5086 37.8494 16.8938C37.7825 17.177 37.5657 17.4156 37.4151 17.6736C37.3508 17.7838 37.3512 17.903 37.4319 17.988C37.5126 18.073 37.6114 18.0472 37.7066 17.9784C37.9926 17.7717 38.2956 17.592 38.5682 17.3656C38.8477 17.1336 39.1136 16.8969 39.4833 16.8929C39.6388 16.8912 39.7048 16.765 39.7838 16.6275C40.1732 15.9495 40.8193 15.6305 41.3909 15.208C41.5221 15.1109 41.6484 15.1767 41.7812 15.2172C41.9946 15.2826 42.1724 15.251 42.3088 15.0048C42.4689 14.7156 42.81 14.7972 43.0383 14.6135C43.2082 14.4767 43.4216 14.378 43.466 14.1409C43.5377 13.7577 43.7562 13.6062 44.057 13.6386C44.3483 13.6701 44.466 13.5484 44.4856 13.2466C44.9427 12.9982 45.3468 12.5889 45.917 12.6914C46.0735 12.7195 46.0825 12.685 46.0605 12.5612C46.0562 12.5366 46.0042 12.524 45.9756 12.5036C45.8718 12.4305 45.8513 12.332 45.9415 12.2387C46.0147 12.1629 46.1076 12.0617 46.193 12.06C46.4179 12.0559 46.5962 11.9764 46.7333 11.7806C46.8719 11.5829 47.0853 11.4683 47.2733 11.4733C47.7627 11.4863 48.0003 11.1222 48.2418 10.756C48.3203 10.6371 48.3288 10.447 48.4784 10.3997C49.1117 10.1997 49.3828 9.47813 49.9214 9.13862C50.0269 9.07214 50.0946 8.9049 50.151 8.76882C50.2936 8.42481 50.5907 8.2889 50.8444 8.09898C50.9714 8.00393 51.0987 8.11785 51.229 8.16408C51.4293 8.23523 51.5907 8.10262 51.533 7.89573C51.435 7.54427 51.5674 7.28094 51.7427 7.06315C51.9465 6.80934 52.1947 6.58496 52.4566 6.40993C52.7667 6.20252 53.0086 5.96222 53.1229 5.56644C53.2387 5.16513 53.5076 4.94214 53.8554 4.8109C54.0492 4.73784 54.2272 4.61025 54.4217 4.54082C54.6178 4.4707 54.6269 4.28546 54.7126 4.12687C54.9217 3.7401 55.0555 3.31316 55.2585 2.93158C55.538 2.40613 55.8754 1.91826 56.2054 1.42899C56.3673 1.18903 56.9339 1.16151 57.1413 1.44163C57.2956 1.65008 57.4379 1.73249 57.6514 1.73889C57.8578 1.74513 58.0645 1.74616 58.2705 1.75915C58.5275 1.77542 58.7592 1.88796 58.8584 2.15839C58.9721 2.46811 59.1786 2.63536 59.4089 2.81628C59.7977 3.12151 59.7833 3.29117 59.4093 3.70114C59.367 3.74771 59.3229 3.82458 59.327 3.88328C59.331 3.93972 59.3932 4.03338 59.4353 4.03753C59.7766 4.0706 60.119 4.08826 60.4614 4.10661C60.6131 4.11475 60.7115 4.21672 60.8058 4.33203C60.8988 4.44595 60.8509 4.56108 60.7697 4.62063C60.6598 4.70131 60.5289 4.75966 60.4 4.79117C59.9163 4.90959 59.8812 4.96326 59.9112 5.43088C59.9223 5.60557 60.1406 5.769 59.9547 5.94767C59.8527 6.04566 59.7138 6.09362 59.6046 6.18399C59.482 6.28562 59.4436 6.43434 59.52 6.59033C59.6 6.75376 59.6118 6.87063 59.414 6.91495C59.2795 6.94507 59.1196 6.97243 59.0913 7.15092C58.9862 7.81435 58.5402 7.97831 58.0482 8.08409C57.9476 8.10573 57.8459 8.12235 57.7448 8.14122C57.7773 8.18658 57.8027 8.24337 57.8434 8.27505C57.9364 8.34725 58.0044 8.4371 57.9131 8.54427C57.7725 8.70978 57.629 8.94489 57.4557 8.9861C57.1676 9.05466 57.4056 9.41096 57.1551 9.49562C56.9705 9.55812 56.8383 9.79686 56.6565 9.89572C56.443 10.0119 56.1988 10.0552 55.9717 10.1424C55.8116 10.2039 55.652 10.274 55.5032 10.3633C55.4185 10.4142 55.3454 10.4999 55.4305 10.6364C55.5519 10.8315 55.5194 10.9904 55.3232 11.104C55.2322 11.157 55.1275 11.2112 55.0688 11.2984C54.8434 11.6331 54.7037 12.0659 54.3497 12.2541C54.023 12.4277 54.0089 12.9421 53.608 13.0295C53.523 13.0481 53.4718 13.2783 53.4101 13.4139C53.2201 13.831 53.0423 14.2456 52.5258 14.2468C52.4082 14.247 52.415 14.6384 52.1596 14.4927C52.1512 14.4878 52.0587 14.6123 52.0693 14.6315C52.2302 14.921 52.2462 15.1954 52.0398 15.4672C52.0228 15.4894 52.0279 15.5458 52.039 15.5796C52.0716 15.6788 52.1273 15.6963 52.1972 15.64C52.4947 15.4009 52.7569 15.0486 53.1913 15.2427C53.3606 15.0146 53.6273 15.0311 53.844 14.9213C54.1611 14.7608 54.4775 14.6402 54.5418 14.1729C54.5609 14.0346 54.6792 13.9075 54.768 13.7904C54.8066 13.7395 54.9108 13.6821 54.9421 13.7042C55.2817 13.9447 55.4555 13.6341 55.6171 13.4213C55.9274 13.0129 56.2651 12.644 56.6179 12.2823C56.9824 11.9087 57.4973 11.8455 57.8461 11.443C57.945 11.3285 58.1653 11.3329 58.3328 11.3114C58.5709 11.2811 58.8264 11.309 58.9122 10.9648C58.9635 10.9844 59.0549 10.9961 59.0593 11.025C59.0959 11.2591 59.1641 11.2328 59.3118 11.1106C59.5221 10.9367 59.3753 10.5242 59.6578 10.4452C59.8878 10.381 60.1364 10.3942 60.3772 10.3874C60.6166 10.3807 60.5892 10.2349 60.6041 10.0252C60.6151 9.87079 60.808 9.60642 60.9148 9.60971C61.3131 9.62148 61.5231 9.33218 61.7055 9.04323C61.8531 8.80933 61.9971 8.91598 62.1534 8.93225C62.3186 8.94939 62.4766 8.82128 62.4666 8.70182C62.446 8.45684 62.4474 8.2496 62.6505 8.12582C62.8551 8.00099 63.0591 7.84136 63.3199 8.00411C63.4051 8.05726 63.551 8.00116 63.5662 7.87703C63.6462 7.22121 64.0596 7.13638 64.5316 7.11941C64.7021 7.11335 64.8782 7.08721 65.0384 7.02627C65.1182 6.9958 65.2355 6.80986 65.2221 6.78977C64.8555 6.23801 65.3289 6.2626 65.571 6.12963C65.8158 5.99546 66.0624 5.8805 66.1826 5.55709C66.2978 5.24719 66.6058 5.14695 66.8384 5.02264C67.3161 4.76745 67.7668 4.42344 68.3471 4.42154C68.5674 4.42084 68.7359 4.48144 68.927 4.54705C69.1077 4.60904 69.235 4.42205 69.1513 4.20062C69.0679 3.9804 68.9743 3.83393 69.2267 3.62756C69.6074 3.3161 69.9973 2.99322 70.0968 2.38986C70.141 2.12168 70.4207 1.99772 70.6419 1.89073C70.8715 1.77958 71.0479 1.63727 71.1244 1.35281C71.1633 1.20756 71.2302 1.06455 71.3106 0.942324C71.4733 0.694229 71.6169 0.343122 71.8378 0.254999C72.0526 0.1693 72.3604 0.338621 72.6157 0.435574C72.7729 0.495476 72.9231 0.612512 72.9321 0.845544C72.9403 1.05122 72.7763 1.06888 72.6777 1.16203C72.6303 1.20687 72.5832 1.29066 72.5857 1.35437C72.5898 1.46189 72.6183 1.57806 72.668 1.6686C72.6909 1.71033 72.8008 1.73214 72.8498 1.7079C73.0683 1.60004 73.2781 1.47037 73.4929 1.35247C73.6725 1.25378 73.8437 1.2962 73.9428 1.47781C74.0712 1.71327 74.1937 1.93072 74.4349 2.04724C74.5082 2.08256 74.5879 2.22989 74.5833 2.32061C74.5548 2.88155 74.9114 3.01018 75.2742 3.1402C75.3708 3.17483 75.4704 3.20063 75.5619 3.2472C75.5716 3.25222 75.5513 3.38397 75.5176 3.43314C75.4564 3.52265 75.3717 3.61925 75.2605 3.54723C75.0694 3.42396 74.9371 3.58393 74.7889 3.65509C74.6942 3.70062 74.6976 3.76555 74.7819 3.80104C74.8137 3.81437 74.8488 3.81974 74.8788 3.8367C75.1874 4.01087 75.3279 4.26866 75.2253 4.54515C75.1216 4.82458 75.0342 5.12513 74.7823 5.30311C74.578 5.44733 74.3889 5.62063 74.1783 5.75117C73.9891 5.86838 73.9436 6.04411 74.0103 6.23438C74.0939 6.47277 74.0814 6.63413 73.9298 6.85297C73.7214 7.15387 73.5855 7.50826 73.3218 7.77921C73.1538 7.95199 73.0783 8.23766 72.9572 8.47C72.714 8.93658 72.4726 9.40438 72.2197 9.86421C72.1698 9.95458 72.0732 10.0683 71.9955 10.0709C71.8641 10.0758 71.6866 9.99233 71.6935 10.2176C71.719 11.0446 71.2382 11.5434 70.7989 12.0813C70.4861 12.4644 70.0988 12.8015 70.063 13.3855C69.6841 14.1609 69.3074 14.9379 68.9217 15.7091C68.8954 15.7619 68.8002 15.7676 68.7414 15.8039C68.6585 15.8554 68.6699 15.9099 68.7717 15.9499C68.8031 15.9624 68.8386 15.9684 68.8719 15.967C69.016 15.9613 69.1339 15.9182 69.1964 15.7446C69.3147 15.4153 69.5451 15.291 69.8547 15.3045C70.2196 15.3204 70.5444 15.1767 70.7642 14.8533C71.0512 14.4314 71.4163 14.1862 71.8707 14.0927C72.0509 14.0557 72.23 13.983 72.2598 13.7714C72.3157 13.3761 72.5047 13.2344 72.8386 13.0952C73.3789 12.8699 73.8522 12.4568 74.2911 12.0323C74.5291 11.8022 74.7563 11.5784 75.0459 11.4388C75.3605 11.2872 75.6654 11.1242 75.8619 10.7782C75.9685 10.5907 76.1496 10.5645 76.3179 10.6535C76.4853 10.742 76.6201 10.8119 76.7136 10.5538C76.7488 10.4561 76.8113 10.4693 76.8849 10.5353C77.0292 10.6649 77.2076 10.6611 77.3792 10.6487C77.6504 10.6293 77.8226 10.4863 77.8703 10.166C77.8998 9.96636 77.917 9.79184 78.0726 9.66546C78.5924 9.24302 79.0431 8.69957 79.6968 8.5119C79.7875 8.48592 79.8868 8.42152 79.9454 8.34101C80.2869 7.87235 80.6812 7.68832 81.1948 7.98662C81.2331 8.00895 81.3403 7.95944 81.3651 7.91079C81.3887 7.86474 81.367 7.74666 81.3282 7.71134C81.2062 7.59985 81.0308 7.58167 81.1476 7.28977C81.3017 6.90369 81.6459 6.64227 81.6814 6.17915C81.6945 6.00792 81.8741 5.99251 82.008 5.9591C82.223 5.9056 82.4074 5.7645 82.4581 5.53337C82.5078 5.30588 82.5087 5.06575 82.6888 4.91045C83.0967 4.559 83.361 4.00412 83.8767 3.81125C84.2115 3.68608 84.2401 3.49027 84.144 3.13172C84.0701 2.85592 84.2413 2.71275 84.5029 2.83082C84.8058 2.96777 85.1232 2.84865 85.4161 2.96915C85.4715 2.99183 85.5335 3.05087 85.5546 3.11008C85.6004 3.23871 85.5237 3.31887 85.4309 3.38085C85.3732 3.41929 85.2677 3.4669 85.2704 3.50204C85.2801 3.6312 85.3929 3.62877 85.4812 3.64488C85.5146 3.65111 85.5503 3.65215 85.5837 3.64643C85.8878 3.59484 86.192 3.54186 86.4959 3.48733C86.6908 3.45236 86.6911 3.45097 86.6549 3.80035C86.6129 4.2053 86.6165 4.2233 87.0185 4.29377C87.1551 4.31783 87.3663 4.31385 87.3709 4.46049C87.389 5.03805 87.7539 5.00862 88.0884 5.02368C88.3062 5.03355 88.483 5.13223 88.6656 5.24442C88.8575 5.36249 88.8653 5.38691 88.6848 5.53095C88.6288 5.57562 88.5639 5.60609 88.5087 5.65179C88.4028 5.73957 88.2814 5.81575 88.3931 6.00619C88.563 6.29601 88.7238 6.59275 88.8802 6.89209C88.9695 7.06263 88.8584 7.22814 88.6451 7.22346C88.547 7.22121 88.4339 7.15369 88.3668 7.25965C88.2633 7.42378 88.1522 7.54981 87.9681 7.59465C87.6113 7.68139 87.4665 7.95372 87.445 8.35158C87.4373 8.49579 87.3854 8.66702 87.3007 8.77124C86.8622 9.30985 86.4657 9.91113 85.8183 10.17C85.5737 10.2676 85.6403 10.4291 85.7215 10.6225C85.7603 10.7146 85.7691 10.9224 85.7389 10.9366C85.3185 11.1348 85.3708 11.6412 85.1786 11.9831C85.0869 12.1461 85.007 12.3351 84.8781 12.4509C84.3204 12.9525 84.029 13.6438 83.7399 14.3471C83.5753 14.7475 83.5227 14.337 83.4196 14.2724C83.3644 14.238 83.2813 14.1973 83.2372 14.2212C83.1945 14.2442 83.1673 14.3465 83.1673 14.4141C83.1673 14.4857 83.2067 14.5579 83.2298 14.6294C83.2709 14.7567 83.4813 14.8162 83.3778 14.9862C83.3318 15.0623 83.1845 15.0505 83.0973 15.1064C82.8899 15.2394 82.6918 15.3902 82.4887 15.5316C82.2296 15.7122 82.4998 15.7243 82.5591 15.7854C82.6264 15.8547 82.6321 15.9 82.585 15.9876C82.5141 16.1199 82.4605 16.2645 82.4028 16.4056C82.3425 16.5532 82.4121 16.7613 82.5107 16.7916C82.6665 16.8398 82.6541 16.684 82.7042 16.6043C82.7944 16.461 82.9327 16.4698 83.0661 16.4366C83.3456 16.367 83.1656 16.3029 83.0639 16.2049C82.9195 16.0657 82.9112 15.8535 83.0258 15.8372C83.3238 15.7949 83.5436 15.4019 83.8893 15.5972C83.9969 15.658 84.0644 15.6239 84.1312 15.5096C84.2044 15.3843 84.2844 15.2321 84.3955 15.1732C84.6555 15.0356 84.8395 14.8498 84.9887 14.5638C85.2163 14.1274 85.5041 13.7385 85.9855 13.6118C86.0672 13.5903 86.1485 13.4741 86.1922 13.3794C86.3126 13.1185 86.4705 12.9549 86.75 12.9414C87.1417 12.9225 87.3211 12.3834 87.7416 12.4023C87.7774 12.404 87.84 12.2943 87.8514 12.2279C87.8948 11.9738 88.0199 11.8441 88.2385 11.7472C88.5551 11.6066 88.8707 11.434 89.1456 11.211C89.4725 10.9457 89.8118 10.8325 90.2075 10.8505C90.5633 10.8668 90.8746 10.8102 91.0235 10.3332C91.0781 10.1589 91.1357 10.389 91.1801 10.456C91.2003 10.4866 91.2284 10.541 91.2474 10.538C91.8463 10.4458 92.4452 10.3517 93.042 10.2441C93.0897 10.2354 93.1234 10.1289 93.1636 10.0678C93.1056 10.0405 93.0399 9.97899 92.9911 9.99284C92.8948 10.02 92.8125 10.1118 92.7163 10.1362C92.4591 10.2016 92.2382 10.1201 92.0908 9.86265C92.0568 9.80344 92.0374 9.71359 92.0486 9.64572C92.0649 9.54911 92.1298 9.53942 92.2057 9.56816C92.3345 9.61715 92.4666 9.6639 92.6008 9.6845C92.7212 9.70285 92.7994 9.60538 92.7945 9.47882C92.7851 9.24164 92.6339 8.93641 93.0583 8.98454C93.1671 8.997 93.2291 8.87599 93.2259 8.74908C93.2159 8.34344 93.4325 8.0834 93.7136 7.92325C93.986 7.76813 94.2444 7.61543 94.4879 7.39659C94.7156 7.19196 95.0073 6.9655 95.3345 7.23593C95.3989 7.28908 95.4616 7.30189 95.5178 7.2297C95.7789 6.89452 96.239 6.97762 96.4998 6.62582C96.58 6.51744 96.7329 6.43486 96.8597 6.42049C97.2947 6.37115 97.4532 5.93573 97.73 5.66859C97.7534 5.64608 97.7226 5.52714 97.6941 5.46672C97.5918 5.24892 97.6441 5.10886 97.8411 5.01295C98.0951 4.88916 98.3429 4.78043 98.6346 4.79671C98.9269 4.81298 99.1693 4.6769 99.2734 4.32787C99.3719 3.99789 99.5802 3.85679 99.8903 3.81108C100.201 3.76537 100.453 3.58497 100.602 3.23231C100.693 3.0178 100.892 2.91825 101.116 2.89661C101.286 2.88016 101.461 2.77663 101.621 2.80416C102.057 2.87947 102.323 2.61804 102.568 2.28546C102.614 2.224 102.555 2.00915 102.727 2.14575C102.776 2.18522 102.786 2.29135 102.836 2.32753C102.943 2.40406 103.069 2.31628 103.084 2.22989C103.154 1.82667 103.517 1.63917 103.618 1.2659C103.628 1.22972 103.649 1.19665 103.669 1.16514C103.9 0.796376 104.169 0.529064 104.609 0.726258C104.843 0.609569 104.988 0.657353 105.063 0.966735C105.107 1.14402 105.217 1.30867 105.321 1.45686C105.436 1.61857 105.491 1.78356 105.471 1.98941C105.443 2.26521 105.558 2.43193 105.802 2.47365C105.94 2.49703 106.063 2.53356 106.169 2.65561C106.287 2.79325 106.314 3.0159 106.157 3.14592C106.053 3.23265 105.868 3.24772 106.112 3.39747C106.381 3.56247 106.758 3.63293 106.872 3.94889C106.988 4.2697 107.168 4.29377 107.394 4.35886C107.522 4.39574 107.631 4.51347 107.749 4.59467C107.778 4.61492 107.808 4.63293 107.836 4.65509C107.987 4.7761 108.003 5.04498 107.857 5.14989C107.655 5.29463 107.441 5.41807 107.241 5.56558C107.158 5.62669 107.045 5.71931 107.036 5.80969C106.967 6.45806 106.484 6.85279 106.282 7.41702C106.16 7.75618 105.951 7.9977 105.63 8.11006C105.334 8.21342 105.299 8.40611 105.442 8.71359C105.481 8.79808 105.346 8.98575 105.29 9.12581C105.252 9.22225 105.158 9.3469 105.184 9.40992C105.342 9.79565 105.146 9.93 104.872 9.94489C104.583 9.96047 104.413 10.0508 104.43 10.4085C104.434 10.4849 104.425 10.5657 104.405 10.639C104.305 11.0103 103.752 10.9828 103.808 11.4987C103.852 11.9026 103.668 12.1516 103.364 12.3344C103.292 12.3782 103.21 12.534 103.226 12.6133C103.314 13.0316 103.022 13.2264 102.872 13.5179C102.694 13.8628 102.323 13.9772 102.192 14.363C102.126 14.5565 101.972 14.4353 101.845 14.3971C101.618 14.3285 101.48 14.5822 101.279 14.626C101.252 14.632 101.209 14.699 101.213 14.7056C101.244 14.7548 101.28 14.8239 101.325 14.8349C101.523 14.8844 101.727 14.845 101.929 14.9469C102.343 15.1549 102.719 15.0927 103.018 14.654C103.153 14.4563 103.462 14.3666 103.287 14.0098C103.429 13.8599 103.644 13.7801 103.631 13.4861C103.627 13.3846 103.698 13.2712 103.752 13.1764C103.875 12.9629 104.062 12.903 104.29 13.0008C104.414 13.0543 104.53 13.166 104.656 13.1783C104.814 13.1937 105.008 13.2118 105.072 12.9534C105.084 12.9083 105.15 12.8806 105.191 12.8448C105.211 12.9154 105.246 12.9854 105.249 13.0569C105.26 13.3516 105.226 13.3992 104.99 13.4293C104.856 13.4464 104.72 13.4485 104.586 13.4662C104.559 13.4696 104.511 13.5209 104.515 13.5351C104.535 13.6068 104.559 13.6841 104.602 13.7387C104.645 13.7936 104.712 13.8595 104.769 13.8595C105.147 13.86 105.527 13.8671 105.902 13.8242C106.109 13.8005 106.271 13.6235 106.406 13.4414C106.427 13.4134 106.451 13.354 106.44 13.3365C106.408 13.2868 106.362 13.2227 106.315 13.2155C106.179 13.1944 106.04 13.1976 105.902 13.1926C105.725 13.1862 105.672 13.0507 105.667 12.8865C105.653 12.5095 105.735 12.1982 106.121 12.112C106.187 12.0972 106.248 12.0526 106.311 12.0217C106.366 12.5969 106.404 12.6345 106.833 12.5415C106.933 12.5198 107.039 12.5282 107.136 12.4984C107.179 12.4856 107.206 12.4111 107.241 12.3645C107.211 12.3446 107.184 12.3116 107.153 12.3067C106.855 12.2596 106.538 12.301 106.293 12.0404C106.274 11.813 106.045 11.5443 106.387 11.3867C106.594 11.2917 106.727 11.1445 106.726 10.8768C106.726 10.8429 106.745 10.7956 106.769 10.7769C107.009 10.5881 107.367 10.596 107.5 10.2245C107.765 10.1618 108.071 10.2517 108.287 10.02C108.458 9.83668 108.585 9.60244 108.734 9.39243C108.826 9.26189 108.958 9.23419 109.096 9.20112C109.397 9.12858 109.695 9.03319 109.995 8.95424C110.101 8.92637 110.211 8.87945 110.22 8.7586C110.253 8.34915 110.503 8.29635 110.793 8.25255C110.989 8.22311 111.277 7.79012 111.327 7.52246C111.402 7.12184 111.594 6.97052 111.944 7.01865C112.086 7.03822 112.117 7.19247 112.071 7.24459C111.897 7.44369 112.105 7.67464 111.999 7.88153C111.945 7.98627 112.122 8.21359 112.213 8.1852C112.641 8.05016 113.067 7.98368 113.502 8.16286C113.535 8.17672 113.611 8.08426 113.658 8.03094C113.733 7.94524 113.711 7.89625 113.606 7.8727C113.241 7.79012 112.875 7.70598 112.512 7.61128C112.463 7.59829 112.39 7.51623 112.394 7.47398C112.4 7.40975 112.454 7.33912 112.505 7.29445C112.612 7.19888 112.738 7.12824 112.839 7.02644C112.881 6.98472 112.905 6.88015 112.89 6.82007C112.877 6.77333 112.794 6.73282 112.737 6.72174C112.606 6.69628 112.486 6.87357 112.349 6.7619C112.296 6.71914 112.251 6.65664 112.219 6.59258C112.185 6.5235 112.222 6.44265 112.307 6.43469C112.512 6.41581 112.718 6.42361 112.923 6.41131C113.123 6.39919 113.348 6.42967 113.377 6.09016C113.381 6.0403 113.477 5.96291 113.531 5.96187C113.933 5.95321 114.163 5.64366 114.341 5.31973C114.545 4.94577 114.801 4.77576 115.183 4.79082C115.302 4.7955 115.477 4.82095 115.514 4.64176C115.533 4.54896 115.446 4.42967 115.411 4.32077C115.399 4.28494 115.39 4.24321 115.394 4.20651C115.413 4.05606 115.409 3.89159 115.466 3.76053C115.54 3.58861 115.71 3.68071 115.838 3.66738C116.076 3.64228 116.172 3.52092 116.232 3.24322C116.313 2.86562 116.837 2.78719 117.048 3.0938C117.13 3.21292 117.172 3.36527 117.246 3.4927C117.307 3.59675 117.446 3.57026 117.453 3.4463C117.467 3.19647 117.56 2.99495 117.7 2.82216C117.861 2.62532 117.755 2.48387 117.653 2.32892C117.555 2.18037 117.555 2.07805 117.731 1.9811C117.951 1.86026 118.157 1.75932 118.415 1.78789C118.541 1.80174 118.703 1.70202 118.71 1.52352C118.727 1.07338 119.024 0.851777 119.279 0.601432C119.483 0.399909 119.712 0.227991 119.935 0.0519185C120.023 -0.0173334 120.134 -0.0310106 120.187 0.0981441C120.267 0.292395 120.425 0.382077 120.572 0.468988C120.814 0.611993 121.124 0.658738 121.311 0.858183C121.496 1.0552 121.564 1.39315 121.777 1.59468C121.854 1.66739 121.987 1.74461 122.028 1.59987C122.114 1.30486 122.243 1.34814 122.381 1.51331C122.496 1.65181 122.643 1.81767 122.661 1.98699C122.744 2.76226 123.317 3.24408 123.546 3.92933C123.584 4.04273 123.771 4.0848 123.871 4.18279C123.945 4.25447 124.055 4.41738 124.036 4.44681C123.946 4.58514 123.796 4.56264 123.66 4.53009C123.627 4.52247 123.601 4.48698 123.569 4.4759C123.344 4.39868 123.221 4.43816 123.17 4.60748C123.083 4.90007 123.008 5.19768 122.912 5.48663C122.853 5.66651 122.712 5.82977 122.7 6.00861C122.673 6.39989 121.987 6.26104 122.212 6.81315C122.368 7.19698 122.01 7.45303 122.03 7.80449C122.061 8.36699 121.639 8.67464 121.43 9.10209C121.412 9.13776 121.301 9.14607 121.248 9.12374C121.026 9.03024 121.029 9.21722 121.039 9.35071C121.052 9.51882 121.306 9.66251 121.115 9.84534C121.023 9.93312 120.86 9.92861 120.729 9.96272C120.624 9.9899 120.61 10.0398 120.686 10.1227C120.735 10.1765 120.779 10.2352 120.827 10.2896C120.991 10.475 121.041 10.6596 120.891 10.9014C120.634 11.3145 120.565 11.8207 120.395 12.2778C120.341 12.4231 120.368 12.587 120.506 12.6817C120.693 12.8093 120.937 12.7392 121.057 12.5562C121.151 12.4113 121.074 12.2641 121.095 12.1227C121.116 11.9887 121.331 11.8805 121.414 11.9532C121.601 12.1184 121.761 12.3342 122.021 12.3554C122.08 12.3602 122.177 12.3602 122.193 12.3256C122.243 12.2158 122.209 12.1133 122.106 12.0472C122.047 12.0096 121.984 11.9721 121.94 11.9172C121.879 11.8417 121.925 11.6454 122.006 11.6251C122.335 11.5424 122.671 11.385 122.994 11.4116C123.246 11.4322 123.447 11.2709 123.684 11.3074C123.723 11.3135 123.772 11.2354 123.816 11.1963C123.758 11.1584 123.7 11.1222 123.643 11.0822C123.556 11.0211 123.45 10.975 123.39 10.8893C123.333 10.8095 123.291 10.6807 123.305 10.5841C123.321 10.4631 123.439 10.4061 123.539 10.4636C123.795 10.6116 124.068 10.6132 124.343 10.6232C124.412 10.6256 124.494 10.6703 124.546 10.6414C124.981 10.3999 125.447 10.351 125.921 10.3311C125.974 10.3289 126.028 10.2415 126.075 10.1867C126.098 10.1604 126.113 10.1201 126.119 10.0834C126.123 10.0619 126.104 10.014 126.094 10.0138C125.728 10.006 125.372 9.86144 125.005 10.136C124.661 10.3928 124.542 10.3192 124.225 9.92861C124.194 9.89001 124.182 9.7657 124.201 9.75237C124.431 9.58911 124.685 9.46411 124.806 9.15524C124.859 9.02245 124.978 9.05119 125.075 9.0834C125.207 9.12702 125.332 9.19974 125.465 9.23454C125.649 9.28249 125.807 9.10348 125.734 8.89105C125.663 8.68624 125.625 8.53129 125.817 8.41546C126.124 8.23073 126.431 8.06107 126.427 7.57873C126.427 7.51294 126.565 7.4281 126.652 7.38222C126.999 7.19749 127.376 7.17031 127.752 7.12911C128.006 7.10141 128.04 6.99043 127.797 6.83929C127.724 6.79376 127.744 6.73143 127.846 6.7039C128.033 6.65335 128.113 6.48628 128.212 6.32492C128.367 6.07129 128.419 6.07354 128.7 6.19023C128.929 6.28528 128.92 6.4359 128.813 6.63517C128.786 6.68624 128.793 6.76034 128.784 6.82388C128.847 6.82561 128.961 6.84674 128.967 6.82613C129.093 6.41755 129.439 6.4217 129.719 6.29739C130.12 6.11924 130.171 5.97503 130.022 5.5036C129.906 5.13777 129.906 5.13656 130.211 5.05934C130.344 5.02541 130.481 5.00464 130.613 4.96482C130.738 4.92742 130.777 4.72347 130.683 4.58359C130.621 4.492 130.538 4.41928 130.465 4.33687C130.401 4.26381 130.396 4.18677 130.464 4.14868C130.616 4.06333 130.771 3.97867 130.932 3.91859C131.094 3.85852 131.177 4.02628 131.28 4.11787C131.405 4.22919 131.504 4.27212 131.594 4.07372C131.657 3.93643 131.729 3.80294 131.811 3.67898C131.89 3.55796 132.034 3.44335 131.881 3.30018C131.837 3.25984 131.699 3.367 131.602 3.37375C131.552 3.37722 131.497 3.31108 131.45 3.26832C131.445 3.26364 131.475 3.19924 131.497 3.1705C131.541 3.11233 131.589 3.05693 131.639 3.00568C131.664 2.9804 131.7 2.94889 131.729 2.95097C132.227 2.98785 132.627 2.65319 133.078 2.51261C133.437 2.40042 133.672 2.18141 133.84 1.80745C133.985 1.4856 134.298 1.27525 134.278 0.838446C134.268 0.611993 134.507 0.581695 134.649 0.486301C134.794 0.389002 134.918 0.452367 134.994 0.596411C135.098 0.795683 135.201 1.00257 135.263 1.22106C135.364 1.57338 135.511 1.76538 135.861 1.5829C135.91 1.5578 136.022 1.58325 136.049 1.62792C136.191 1.86164 136.374 2.01244 136.62 2.0687C136.677 2.95253 137.299 2.83653 137.809 2.92899C137.927 2.95045 137.959 3.07459 137.916 3.19093C137.85 3.37185 137.95 3.48335 138.031 3.60454C138.182 3.83099 138.009 3.82909 137.889 3.86475C137.748 3.90665 137.637 3.98057 137.611 4.16046C137.586 4.33532 137.645 4.44802 137.785 4.53165C137.967 4.63985 138.143 4.76122 138.312 4.89314C138.358 4.92881 138.385 5.02074 138.391 5.08999C138.402 5.23195 138.311 5.28389 138.202 5.29272C138.099 5.30086 137.996 5.29896 137.893 5.29982C137.701 5.30138 137.664 5.41201 137.728 5.59397C137.741 5.63015 137.761 5.66357 137.769 5.70062C137.856 6.08064 137.754 6.385 137.479 6.62097C137.316 6.76034 137.15 6.89677 136.996 7.04774C136.892 7.14936 136.825 7.27662 136.804 7.44403C136.736 7.9674 136.682 8.50168 136.251 8.85036C136.227 8.8701 136.282 8.98991 136.266 9.05137C136.209 9.26553 136.171 9.50202 136.059 9.67706C135.967 9.82197 135.751 9.86282 135.647 10.0036C135.544 10.144 135.778 10.3362 135.657 10.5226C135.558 10.6755 135.496 10.863 135.265 10.77C135.106 10.7063 135.01 10.8426 134.952 10.9854C134.885 11.1518 134.963 11.2782 135.076 11.3834C135.34 11.6298 135.814 11.653 135.992 11.336C136.279 10.8218 136.661 10.6002 137.177 10.5727C137.363 10.5626 137.485 10.4066 137.552 10.2179C137.779 9.5808 138.366 9.42048 138.787 9.04236C138.835 8.99874 138.996 9.05015 139.065 9.11283C139.197 9.23246 139.292 9.40282 139.419 9.53215C139.58 9.69679 139.626 9.58062 139.663 9.39918C139.685 9.29236 139.771 9.20424 139.813 9.10002C139.87 8.95632 139.767 8.83772 139.587 8.84396C139.52 8.84621 139.454 8.8862 139.387 8.89676C139.362 8.90057 139.316 8.87495 139.31 8.85192C139.289 8.78302 139.251 8.67325 139.278 8.64243C139.444 8.44922 139.604 8.22727 139.807 8.10071C140.226 7.84084 140.642 7.58565 140.994 7.21637C141.38 7.17187 141.571 6.81748 141.76 6.5261C142.111 5.98438 142.7 5.75221 143.037 5.19941C143.103 5.09189 143.272 5.05831 143.399 5.00481C143.695 4.87964 143.961 4.74373 144.039 4.33307C144.096 4.03546 144.414 4.02368 144.584 3.83324C144.817 3.57407 145.249 3.5597 145.307 3.08255C145.656 2.76901 146.002 2.45357 146.356 2.148C146.374 2.13224 146.456 2.19595 146.501 2.23439C146.794 2.49045 147.178 2.59415 147.422 2.93418C147.506 3.05277 147.671 3.15353 147.682 3.27576C147.729 3.79827 148.11 4.02663 148.385 4.33843C148.489 4.45703 148.586 4.5564 148.568 4.71309C148.533 5.00654 148.744 5.21378 148.763 5.4617C148.781 5.70321 148.834 5.89764 148.929 6.11007C149.07 6.42516 149.015 6.49788 148.637 6.65075C148.605 6.66374 148.568 6.66304 148.536 6.67689C148.382 6.74442 148.34 6.91789 148.459 7.019C148.567 7.11006 148.692 7.17482 148.801 7.26484C148.902 7.34864 148.906 7.52436 148.815 7.53839C148.554 7.57838 148.34 7.81591 148.037 7.71636C147.891 7.66841 147.814 7.85643 147.893 8.1092C147.946 8.27904 147.957 8.43485 147.799 8.48056C147.612 8.53423 147.476 8.7638 147.228 8.63378C146.957 8.49164 146.638 8.94074 146.352 8.58703C146.33 8.56054 146.222 8.59829 146.169 8.63361C145.845 8.84604 145.527 9.06781 145.205 9.28284C145.135 9.32993 145.126 9.3836 145.199 9.45632C145.25 9.50687 145.336 9.59967 145.36 9.58391C145.478 9.50826 145.576 9.39607 145.688 9.30846C145.823 9.20286 145.859 9.33409 145.902 9.43641C145.945 9.53959 145.966 9.62287 146.069 9.46705C146.356 9.0344 146.384 9.01258 146.599 9.20286C146.807 9.38758 146.967 9.5022 147.214 9.27384C147.329 9.16806 147.443 9.27107 147.401 9.46636C147.365 9.63343 147.405 9.75271 147.444 9.90074C147.539 10.2567 147.411 10.5181 147.111 10.5855C146.91 10.6307 146.7 10.6268 146.493 10.6449C146.388 10.4967 146.29 10.3388 146.168 10.2103C146.15 10.1906 146.01 10.2962 145.945 10.3658C145.929 10.3827 145.978 10.5342 146.012 10.5425C146.177 10.5829 146.347 10.5953 146.515 10.6175C146.467 10.7856 146.56 11.0354 146.319 11.091C146.168 11.1258 146.015 11.2345 146.006 11.3581C145.948 12.1161 145.177 12.2212 144.963 12.8325C144.939 12.9023 144.782 12.9125 144.687 12.9527C144.463 13.0477 144.238 13.1393 144.017 13.2416C143.869 13.3097 143.848 13.4686 143.825 13.6232C143.791 13.8548 143.665 13.8135 143.524 13.7556C143.427 13.7157 143.268 13.7013 143.254 13.8169C143.209 14.1715 142.744 14.1029 142.754 14.4864C142.57 14.6421 142.346 14.7496 142.322 15.0713C142.316 15.1469 142.183 15.2684 142.107 15.2707C141.559 15.2861 141.06 15.6632 140.494 15.5397C140.448 15.5295 140.356 15.601 140.336 15.6571C140.298 15.7674 140.335 15.8732 140.423 15.9572C140.482 16.0133 140.675 16.0751 140.54 16.1632C140.321 16.3062 140.306 16.6363 140.047 16.7279C139.655 16.8663 139.486 17.354 139.027 17.467C138.5 17.597 138.008 17.8912 137.44 17.8669C137.222 17.8576 137.042 18.0602 136.998 18.2847C136.963 18.4696 137.011 18.7385 136.805 18.7361C136.541 18.7328 136.36 19.1272 136.047 18.8796C135.928 18.7856 135.716 18.8318 135.546 18.8308C135.316 18.8292 135.384 18.9459 135.448 19.1086C135.608 19.52 135.6 19.5614 135.265 19.7045C135.099 19.7752 134.956 19.855 134.823 19.9852C134.356 20.4447 133.878 20.881 133.212 20.913C133.12 20.9173 133.003 20.9897 132.947 21.0728C132.703 21.4369 132.359 21.5887 131.99 21.7097C131.646 21.8226 131.392 22.0688 131.187 22.4009C131.018 22.6753 130.842 22.709 130.647 22.3875C130.593 22.2991 130.382 22.2748 130.261 22.3063C129.965 22.3832 129.678 22.5035 129.393 22.6237C129.348 22.6429 129.332 22.7516 129.302 22.8181C129.219 22.998 129.099 22.9968 128.978 22.882C128.849 22.7592 128.726 22.6263 128.614 22.4833C128.494 22.328 128.648 22.312 128.721 22.2655C128.805 22.2122 128.831 22.1587 128.776 22.1181C128.69 22.0555 128.6 21.9971 128.506 21.9509C128.222 21.8098 128.249 21.391 128.014 21.2315C127.784 21.0761 127.486 21.0816 127.277 20.843C127.147 20.6945 127.041 20.57 127.135 20.3491C127.164 20.2811 127.175 20.2006 127.182 20.1244C127.212 19.8027 127.123 19.6249 126.821 19.5342C126.623 19.4745 126.385 19.5233 126.515 19.1464C126.53 19.1015 126.469 18.9805 126.421 18.9575C126.01 18.7641 126.001 18.4471 126.158 18.0435C126.191 17.957 126.147 17.8141 126.107 17.7132C126.044 17.555 126.056 17.4256 126.143 17.2852C126.28 17.0636 126.406 16.8335 126.536 16.606C126.66 16.3883 126.607 16.1611 126.556 15.9374C126.535 15.846 126.466 15.8065 126.39 15.8439C126.299 15.8889 126.196 15.9338 126.13 16.0126C125.676 16.5564 125.067 16.8583 124.536 17.2769C124.155 17.5768 123.665 17.7059 123.218 17.8905C123.095 17.9412 122.936 17.8846 122.814 17.9369C122.68 17.9945 122.869 18.2274 122.705 18.3088C122.549 18.3862 122.388 18.5377 122.237 18.5269C121.761 18.493 121.392 18.6807 121.023 19.003C120.876 19.1308 120.69 19.1691 120.561 19.3862C120.3 19.8275 119.977 20.1549 119.46 20.3048C118.943 20.4547 118.494 20.8727 118.06 21.2568C117.909 21.3907 117.791 21.3728 117.667 21.1313C117.513 20.832 117.228 20.6491 116.902 20.7731C116.665 20.8633 116.434 20.8875 116.191 20.877C115.995 20.8683 115.872 20.7788 115.838 20.5484C115.813 20.3836 115.764 20.2837 115.574 20.3704C115.38 20.4597 115.228 20.4423 115.346 20.1159C115.367 20.0595 115.276 19.9076 115.205 19.8609C114.878 19.6457 114.525 19.4857 114.535 18.9386C114.539 18.7439 114.319 18.6687 114.174 18.5633C113.769 18.2709 113.621 17.7757 113.799 17.279C113.842 17.1573 113.999 17.0906 114.09 16.9836C114.107 16.9637 114.058 16.8721 114.039 16.8136C113.772 16.9852 113.683 16.7046 113.541 16.5622C113.428 16.4485 113.385 16.3263 113.498 16.172C113.585 16.0532 113.678 15.9289 113.727 15.789C113.76 15.6964 113.755 15.5029 113.707 15.4726C113.369 15.256 113.508 14.9781 113.61 14.708C113.675 14.5346 113.649 14.4227 113.493 14.3417C113.414 14.3008 113.416 14.2278 113.455 14.1464C113.551 13.9444 113.611 13.7307 113.76 13.5493C114.013 13.2421 114.01 12.8452 113.925 12.4567C113.914 12.4064 113.825 12.3568 113.766 12.3458C113.679 12.3297 113.637 12.3924 113.672 12.47C113.864 12.8983 113.622 13.2101 113.35 13.3178C112.929 13.4842 112.692 13.8536 112.383 14.1447C112.068 14.4407 111.677 14.5991 111.379 14.9494C111.13 15.2433 110.811 15.4939 110.417 15.5931C110.16 15.6575 109.899 15.7949 109.752 16.1014C109.712 16.184 109.575 16.2631 109.491 16.2527C109.12 16.207 108.915 16.3902 108.78 16.7665C108.641 17.1559 108.327 17.1803 107.999 17.1767C107.748 17.1739 107.889 17.3225 107.923 17.4584C107.963 17.6171 107.764 17.8434 107.63 17.8086C107.534 17.7838 107.452 17.6942 107.357 17.6569C107.229 17.6073 107.145 17.7051 107.165 17.8257C107.206 18.091 107.279 18.342 106.915 18.3694C106.859 18.3737 106.782 18.4419 106.758 18.5025C106.677 18.7077 106.541 18.7942 106.352 18.7859C105.975 18.7691 105.666 18.8583 105.609 19.3614C105.168 19.6597 104.854 20.1524 104.362 20.3735C103.948 20.5595 103.538 20.7556 103.129 20.9532C102.971 21.0295 102.757 21.0763 102.675 21.2156C102.286 21.8813 101.635 21.8638 101.069 22.0934C100.774 22.2127 100.626 22.16 100.468 21.9184C100.407 21.8245 100.356 21.722 100.293 21.6299C100.085 21.3259 99.7465 21.2494 99.3811 21.4324C99.3585 21.4436 99.3711 21.5595 99.3773 21.6256C99.3934 21.7989 99.2863 21.8164 99.1889 21.7887C98.8349 21.6879 98.6572 21.3217 98.3886 21.0908C98.2049 20.9329 98.2831 20.7651 98.3737 20.5872C98.4245 20.4873 98.4291 20.3546 98.3092 20.3084C98.2582 20.2887 98.182 20.373 98.1163 20.3749C97.9001 20.3815 97.7929 20.2539 97.8117 20.0331C97.8418 19.6798 97.832 19.6528 97.5718 19.3888C97.4414 19.2565 97.4412 19.0832 97.5994 19.061C97.9881 19.0061 97.9932 18.7039 97.9994 18.383C98.002 18.248 97.942 18.1729 97.8311 18.1384C97.7031 18.0984 97.6443 18.177 97.6114 18.2994C97.502 18.7061 97.4334 18.4556 97.3534 18.2818C97.313 18.1945 97.2655 18.2115 97.2161 18.3138C97.171 18.4071 97.0732 18.5697 97.021 18.3905C96.9309 18.0813 96.8354 17.8368 96.5396 17.7089C96.0727 17.5072 96.1243 16.949 95.9749 16.5384C95.8909 16.3077 96.0778 16.0283 96.2023 15.9281C96.6793 15.5439 96.5713 15.0797 96.4376 14.592C96.3973 14.4449 96.3263 14.309 96.2729 14.1661C96.2219 14.0302 96.2841 13.943 96.3933 13.921C96.9193 13.8152 96.781 13.2818 96.9018 12.9187C96.9138 12.8825 96.8354 12.8003 96.7889 12.7513C96.7683 12.7297 96.723 12.7354 96.6886 12.7324C96.5115 12.7172 96.3456 12.748 96.2089 12.889C95.7815 13.3297 95.3376 13.7525 94.9338 14.2195C94.7004 14.4894 94.4153 14.5844 94.1239 14.6989C94.0131 14.7425 93.9302 14.721 93.8693 14.6095C93.813 14.5063 93.74 14.3903 93.63 14.4398C93.5108 14.4937 93.3739 14.583 93.3149 14.7011C93.2349 14.8618 93.2286 15.0669 93.178 15.2485C93.0909 15.5609 92.9196 15.7723 92.6363 15.8999C92.3991 16.0068 92.248 16.016 92.1745 15.7011C92.1485 15.5898 92.0858 15.5849 92.0372 15.6937C91.9766 15.8299 91.9406 15.976 91.7558 15.8586C91.6704 15.8045 91.5631 15.7787 91.4638 15.7709C91.091 15.742 90.952 15.9244 91.0389 16.3232C91.0629 16.4333 91.1329 16.5351 91.1404 16.6443C91.153 16.8302 91.0229 16.9327 90.8867 16.9482C90.7669 16.9617 90.5953 16.9402 90.6646 16.7007C90.6923 16.6052 90.6826 16.5238 90.6143 16.521C90.3066 16.5086 89.9983 16.5086 89.6902 16.5081C89.6582 16.5081 89.5975 16.5418 89.5987 16.5489C89.611 16.6176 89.6158 16.7155 89.6569 16.7454C89.8201 16.8644 89.9356 17.0976 90.1769 17.0442C90.2581 17.0264 90.3004 17.0657 90.2933 17.1609C90.2907 17.1973 90.2804 17.2477 90.2575 17.2652C89.9181 17.5273 89.5738 17.8114 89.1539 17.8417C88.7759 17.869 88.5045 17.9239 88.4424 18.4424C88.419 18.6369 88.1593 18.6182 87.9957 18.5276C87.835 18.4384 87.7016 18.3294 87.6476 18.6502C87.6319 18.743 87.5283 18.8526 87.4431 18.8891C86.9165 19.114 86.6965 19.814 86.1119 19.9537C85.872 20.011 85.6765 20.1819 85.5715 20.4499C85.5255 20.5674 85.4466 20.6422 85.3364 20.6313C84.9129 20.5899 84.6526 20.962 84.3147 21.1349C84.1255 21.2319 83.9904 21.3964 83.9178 21.6386C83.8483 21.8707 83.6656 22.0316 83.4507 22.0356C82.9561 22.0447 82.5258 22.2468 82.091 22.4824C81.8494 22.6133 81.5708 22.6611 81.3056 22.73C81.2497 22.7445 81.1794 22.6884 81.1157 22.6649C81.1419 22.6036 81.1585 22.5337 81.1963 22.4836C81.2402 22.4256 81.3027 22.3856 81.3565 22.337C81.4091 22.2897 81.461 22.2412 81.5131 22.1933C81.4682 22.1578 81.4247 22.0943 81.3782 22.0915C81.0697 22.0726 80.7606 22.0679 80.4519 22.0562C80.2808 22.0498 80.1077 22.0541 79.9392 22.0252C79.7468 21.9921 79.5863 21.7643 79.5763 21.5352C79.5695 21.3803 79.584 21.2243 79.5774 21.0693C79.5678 20.8474 79.5098 20.7918 79.2689 20.7975C78.9835 20.8041 78.7704 20.4487 78.4404 20.4021C78.268 20.3777 78.0886 20.1476 78.1261 19.8687C78.1633 19.5917 78.0246 19.4265 77.8458 19.2989C77.6143 19.1337 77.3796 18.9656 77.1287 18.8457C76.847 18.7111 76.6575 18.5448 76.6841 18.1621C76.6913 18.0588 76.6392 17.9398 76.5898 17.8443C76.503 17.6767 76.6536 17.4779 76.5008 17.3095C76.3558 17.1497 76.1918 17.168 76.0239 17.1569C75.8448 17.145 75.6974 17.0953 75.6037 16.8917C75.4851 16.6341 75.2553 16.6904 75.0537 16.7009C75.0059 16.7035 74.9606 16.7714 74.9143 16.8091C74.9354 16.8394 74.9523 16.876 74.9785 16.899C75.0863 16.9933 75.1982 17.0818 75.3062 17.1758C75.3753 17.2359 75.378 17.3088 75.315 17.3791C75.2671 17.4324 75.2125 17.5242 75.164 17.5217C75.0003 17.5134 74.8388 17.4615 74.6749 17.4464C74.6173 17.4411 74.5556 17.494 74.4957 17.5203C74.5329 17.5849 74.57 17.6495 74.6074 17.7141C74.6736 17.828 74.8563 17.9125 74.706 18.0863C74.6117 18.1954 74.4634 18.3505 74.3512 18.2626C73.9728 17.9655 73.6695 18.2232 73.4231 18.4468C73.1648 18.6808 72.9169 18.8377 72.5903 18.8249C72.472 18.8204 72.3877 18.8808 72.3392 18.9847C72.27 19.1334 72.1764 19.2241 72.0261 19.2435C71.565 19.3024 71.1707 19.4613 71.0138 20.0312C70.9938 20.1038 70.8425 20.1277 70.755 20.1805C70.637 20.2518 70.4887 20.2992 70.411 20.4087C69.8679 21.1742 69.185 21.2638 68.3949 21.0186C67.838 20.8456 67.2812 20.6516 66.6918 20.6365C66.5424 20.6327 66.6207 20.4824 66.6372 20.3801C66.688 20.0634 66.6523 19.9864 66.4598 19.972C66.3224 19.9616 66.1824 19.9397 66.047 19.9573C65.6483 20.0091 65.295 19.93 65.0226 19.5693C64.4995 19.4784 64.2939 19.0918 64.2119 18.5415C64.1608 18.1988 63.9805 17.9106 63.7419 17.6718C63.635 17.5647 63.5922 17.3806 63.6873 17.2504C63.9065 16.9499 63.8164 16.6952 63.6693 16.4045C63.5681 16.2042 63.6419 16.0754 63.8614 15.9769C63.9971 15.9161 64.2356 15.9849 64.0775 15.6504C63.9018 15.2783 63.7591 14.885 63.621 14.4925C63.5676 14.3406 63.6447 14.2051 63.7404 14.0775C63.9119 13.849 64.2018 13.9257 64.3802 13.7343C64.3992 13.7143 64.3955 13.6592 64.3908 13.6222C64.3872 13.5915 64.3727 13.5453 64.3527 13.537C63.8799 13.3407 63.4499 13.5107 63.1345 13.8753C62.873 14.1776 62.6128 14.3635 62.2468 14.373C61.9139 14.3819 61.7896 14.832 61.4395 14.8372C61.1428 14.8417 60.9391 15.0768 60.7724 15.3346C60.6831 15.4731 60.5701 15.5278 60.4226 15.5287C60.1849 15.53 60.1367 15.6428 60.2612 15.8728C60.2778 15.9038 60.2198 16.0198 60.1723 16.0551C59.8544 16.2913 59.5178 16.5074 59.1244 16.4679C58.7729 16.4326 58.4512 16.466 58.1208 16.6249C57.9422 16.711 57.7151 16.6698 57.5097 16.6845C57.3765 16.694 57.1339 16.6476 57.1445 16.7748C57.1619 16.9843 57.4093 16.905 57.5567 16.957C57.5893 16.9684 57.6341 16.9608 57.6558 16.9833C57.7024 17.0318 57.7445 17.0898 57.7761 17.1519C57.8204 17.2388 57.7934 17.3148 57.7051 17.3337C57.4296 17.3922 57.1373 17.4587 57.0187 17.7716C56.8791 18.14 56.8227 17.8647 56.7233 17.7612C56.6725 17.708 56.5774 17.7492 56.5822 17.8398C56.599 18.1666 56.5011 18.385 56.1903 18.3663C55.8845 18.3477 55.6905 18.4966 55.4762 18.7298C55.0578 19.1852 54.5932 19.5866 54.1434 20.0048C54.0657 20.0769 53.9672 20.1678 53.8774 20.1692C53.3844 20.1767 53.0869 20.5044 52.7429 20.8569C52.4595 21.1474 52.1608 21.5208 51.7175 21.5723C51.573 21.5891 51.4616 21.6742 51.3941 21.8245C51.3034 22.0259 51.1356 22.0633 50.9596 22.0726C50.8567 22.0782 50.7528 22.0638 50.6496 22.065C49.9994 22.0737 49.9994 22.0742 49.9403 22.8159C49.9191 23.0839 49.8517 23.1765 49.6443 23.2045C49.4732 23.2276 49.2992 23.2293 49.1298 23.262C48.9154 23.3034 48.538 23.0459 48.5911 23.6124C48.2623 23.6976 47.9355 23.7944 47.604 23.8616C47.488 23.8851 47.2392 23.498 47.2796 23.3356C47.2972 23.2655 47.4461 23.2367 47.5355 23.1893C47.5572 23.2539 47.5644 23.3507 47.605 23.374C47.6461 23.3977 47.7592 23.3673 47.7735 23.3288C47.8521 23.1188 47.9118 22.8997 47.9712 22.6812C47.976 22.6635 47.9334 22.6173 47.9054 22.6039C47.8764 22.5899 47.833 22.5868 47.8052 22.6012C47.6474 22.6834 47.5035 22.7823 47.5129 23.0155ZM135.527 14.3531C135.631 14.8173 135.667 14.8432 135.918 14.5822C135.995 14.5025 136.044 14.4042 136.156 14.4738C136.237 14.5243 136.284 14.5063 136.272 14.3921C136.265 14.3256 136.225 14.2338 136.177 14.2073C135.918 14.0645 135.722 14.2773 135.506 14.3801C135.445 14.0103 135.568 13.721 135.791 13.453C135.924 13.2929 135.768 13.1873 135.669 13.1028C135.531 12.9854 135.406 13.0145 135.331 13.1604C135.161 13.493 135.215 13.8239 135.527 14.3531ZM145.569 10.2757C145.518 10.2278 145.495 10.1992 145.466 10.1802C145.086 9.92255 144.895 10.0226 144.868 10.4956C144.855 10.7257 144.848 10.9561 144.836 11.1862C144.82 11.4904 144.819 11.4902 144.478 11.5765C144.252 11.6334 144.241 11.6509 144.342 11.8386C144.43 12.0022 144.521 12.1642 144.621 12.3194C144.671 12.3987 144.745 12.4035 144.783 12.3375C144.982 11.9909 145.156 11.6291 145.439 11.3459C145.514 11.2704 145.501 11.0488 145.358 10.9445C145.274 10.8831 145.164 10.85 145.104 10.7683C145.043 10.6848 145.035 10.5484 145.148 10.4845C145.237 10.4343 145.343 10.4222 145.437 10.3812C145.485 10.3602 145.523 10.313 145.569 10.2757ZM146.843 7.82267C146.807 7.76415 146.778 7.66443 146.733 7.65386C146.346 7.56262 145.928 7.71325 145.554 7.47294C145.534 7.46031 145.453 7.56107 145.405 7.61456C145.382 7.64071 145.355 7.70857 145.355 7.70857C145.638 7.9049 145.923 8.09863 146.212 8.28648C146.233 8.30068 146.281 8.28094 146.309 8.26328C146.486 8.15508 146.662 8.04496 146.835 7.92845C146.85 7.91789 146.84 7.8592 146.843 7.82267ZM76.5653 15.6602C76.5434 15.6895 76.5068 15.7162 76.5022 15.7485C76.4704 15.9703 76.4584 16.1755 76.2899 16.363C76.0736 16.6036 76.0993 16.6486 76.3441 16.6788C76.701 16.7227 77.0589 16.8825 77.419 16.6937C77.479 16.6621 77.5406 16.6344 77.6015 16.605C77.567 16.5593 77.5406 16.4918 77.4969 16.4715C77.3093 16.3844 77.1193 16.3013 76.9252 16.2361C76.7216 16.1675 76.6948 15.9946 76.675 15.7977C76.6699 15.7478 76.6036 15.7056 76.5653 15.6602ZM107.17 11.0091C107.145 11.0342 107.112 11.0545 107.096 11.0858C107.071 11.1364 107.057 11.1942 107.039 11.2491C107.316 11.2676 107.383 11.6073 107.592 11.7136C107.74 11.7887 107.928 11.8446 108.081 11.8104C108.339 11.752 108.585 11.6171 108.834 11.5107C108.862 11.4991 108.881 11.4631 108.904 11.4385C108.873 11.4219 108.843 11.3914 108.812 11.3909C108.263 11.3812 107.732 11.2981 107.254 10.9613C107.24 10.9516 107.199 10.992 107.17 11.0091ZM146.622 5.91287C146.774 5.8921 147.059 6.00827 147.309 5.82233C147.362 5.78268 147.437 5.66668 147.425 5.64764C147.331 5.49875 147.223 5.36094 147.111 5.22763C146.992 5.08566 146.936 5.23386 146.884 5.31125C146.689 5.60072 146.37 5.4842 146.13 5.61648C146.074 5.64712 146.035 5.72399 145.999 5.78718C145.959 5.85522 145.997 5.90751 146.094 5.91149C146.231 5.91703 146.369 5.91287 146.622 5.91287ZM99.548 5.49009C99.596 5.40214 99.5725 5.33358 99.4777 5.3341C99.1457 5.33601 98.8126 5.33618 98.4825 5.36942C98.4111 5.37652 98.2834 5.56973 98.2957 5.59016C98.3657 5.70616 98.5392 5.89244 98.5528 5.88015C98.8149 5.64296 99.1486 5.78857 99.422 5.65456C99.4751 5.62859 99.5066 5.54653 99.548 5.49009ZM51.7382 16.1608C51.7178 16.1329 51.7019 16.0976 51.6764 16.0782C51.5442 15.9778 51.2487 16.001 51.215 16.1317C51.1497 16.385 50.9636 16.6024 51.0262 16.8943C51.0341 16.9308 51.046 16.9949 51.0597 16.9961C51.1124 17.0011 51.1873 17.0084 51.2167 16.9743C51.3828 16.7823 51.5428 16.5828 51.6935 16.3754C51.7305 16.3244 51.7245 16.2335 51.7382 16.1608ZM134.598 11.9423C134.547 11.8938 134.505 11.8207 134.455 11.8131C134.076 11.7551 133.828 12.02 133.584 12.2844C133.565 12.3055 133.55 12.3727 133.558 12.3794C133.668 12.4698 133.777 12.5635 133.897 12.6332C133.943 12.6599 134.047 12.6545 134.072 12.6182C134.234 12.3805 134.356 12.104 134.598 11.9423ZM64.9847 14.3512L64.9844 14.3737C64.8826 14.3737 64.7792 14.3616 64.6796 14.3786C64.6244 14.3879 64.5392 14.4397 64.5331 14.4838C64.5244 14.547 64.5676 14.6268 64.6035 14.6885C64.6401 14.7515 64.6895 14.8086 64.7424 14.8555C64.8512 14.9521 64.9798 15.0418 65.1159 14.9838C65.289 14.9104 65.3287 14.7028 65.3833 14.5273C65.3938 14.494 65.3309 14.3971 65.2887 14.3844C65.1916 14.3554 65.0866 14.3602 64.9847 14.3512ZM115.771 5.94594C116.098 5.95408 116.27 5.95304 116.44 5.94075C116.482 5.93763 116.519 5.87028 116.559 5.83237C116.536 5.80449 116.519 5.76554 116.491 5.75031C116.218 5.59934 115.948 5.40526 115.655 5.71845C115.623 5.75256 115.524 5.72814 115.465 5.70408C115.382 5.67015 115.288 5.58064 115.29 5.76883C115.29 5.8225 115.367 5.91322 115.416 5.92101C115.584 5.94785 115.756 5.94559 115.771 5.94594ZM94.0193 8.56193C93.8545 8.56193 93.7548 8.55085 93.658 8.56522C93.5693 8.57838 93.5451 8.63984 93.5816 8.70926C93.5982 8.74094 93.6096 8.78042 93.6336 8.80206C93.8828 9.02765 94.1813 9.04323 94.4411 8.84171C94.4577 8.82872 94.4505 8.77038 94.4474 8.73385C94.4445 8.70147 94.4407 8.65992 94.4224 8.64018C94.2842 8.49285 94.1113 8.57387 94.0193 8.56193ZM94.7808 10.1149C94.8476 10.1246 94.9144 10.135 94.9811 10.1438C95.0147 10.1483 95.0484 10.1532 95.0819 10.153C95.149 10.1526 95.2162 10.1487 95.2833 10.1468C95.3992 10.1433 95.4642 10.0219 95.3958 9.92931C95.3536 9.87217 95.2941 9.7773 95.2513 9.78318C94.9338 9.82577 94.6178 9.88602 94.303 9.95112C94.2591 9.96012 94.2247 10.0261 94.1857 10.0656C94.216 10.0822 94.246 10.1123 94.2767 10.1132C94.4447 10.1178 94.6128 10.1154 94.7808 10.1149ZM130.815 21.0183C130.798 21.046 130.759 21.079 130.763 21.1055C130.787 21.3082 130.701 21.4679 130.625 21.6379C130.569 21.762 130.672 21.8434 130.746 21.8971C130.823 21.9528 130.94 22.017 131.008 21.9874C131.076 21.9587 131.13 21.8216 131.145 21.7231C131.191 21.4336 130.984 21.2487 130.884 21.0196C130.879 21.0093 130.84 21.0183 130.815 21.0183ZM91.8555 11.5647C91.9283 11.5351 92.03 11.5148 92.1052 11.4537C92.142 11.4239 92.1608 11.2936 92.1342 11.2503C92.0222 11.0678 91.8483 11.0796 91.6761 11.109C91.5731 11.1267 91.4869 11.1708 91.4537 11.2937C91.4289 11.3848 91.4555 11.4527 91.5348 11.4786C91.6312 11.5103 91.7303 11.5318 91.8555 11.5647ZM80.4059 19.7243C80.1477 19.6485 79.9725 19.8462 79.7752 19.9803C79.6889 20.0392 79.6709 20.0795 79.7355 20.1161C79.7648 20.1325 79.8011 20.1557 79.8291 20.1491C80.0891 20.0879 80.3491 20.0255 80.606 19.9504C80.6445 19.9391 80.6671 19.8593 80.6971 19.8112C80.6691 19.7901 80.6431 19.7572 80.6125 19.7499C80.5468 19.7345 80.4786 19.7324 80.4059 19.7243ZM121.874 2.23751C121.807 2.24201 121.739 2.23664 121.676 2.25413C121.617 2.2704 121.563 2.31109 121.506 2.34086C121.542 2.40163 121.566 2.47902 121.615 2.52023C121.846 2.71604 121.918 2.70651 122.118 2.47521C122.141 2.44924 122.176 2.40111 122.168 2.38415C122.146 2.33515 122.112 2.27629 122.071 2.25915C122.011 2.23439 121.94 2.24305 121.874 2.23751ZM65.4121 8.18901C65.3933 8.01813 65.0656 7.69074 64.9318 7.71688C64.9078 7.72156 64.8782 7.76969 64.873 7.80224C64.8484 7.95303 64.8582 8.09794 64.9759 8.20286C65.0878 8.30258 65.2118 8.31886 65.3416 8.2522C65.3683 8.2387 65.3887 8.21048 65.4121 8.18901ZM85.3244 9.18606C85.2772 9.00393 85.1477 9.00895 85.0184 9.0131C84.9134 9.01657 84.8318 9.06695 84.8137 9.18675C84.793 9.32249 84.885 9.39451 84.9797 9.4113C85.0674 9.42688 85.1694 9.40576 85.2517 9.36594C85.2918 9.34655 85.3017 9.24752 85.3244 9.18606ZM81.4433 21.767C81.5862 21.7002 81.7413 21.6303 81.8941 21.5544C81.923 21.5401 81.943 21.503 81.9671 21.4764C81.9413 21.4554 81.9177 21.4222 81.8891 21.4152C81.6813 21.3647 81.4883 21.3797 81.3563 21.6022C81.3419 21.6266 81.3336 21.6739 81.3451 21.695C81.3603 21.7229 81.3977 21.7355 81.4433 21.767ZM32.419 18.122C32.178 18.122 32.0742 18.1111 31.9736 18.126C31.9099 18.1355 31.851 18.1841 31.7899 18.2151C31.847 18.2454 31.9039 18.3013 31.961 18.3013C32.1645 18.3017 32.368 18.2851 32.5713 18.2688C32.6014 18.2664 32.6294 18.2303 32.6585 18.2101C32.6328 18.1886 32.6093 18.1543 32.581 18.1483C32.482 18.1275 32.3814 18.1164 32.419 18.122ZM99.7522 17.6545C99.641 17.6573 99.56 17.7084 99.52 17.8283C99.4893 17.9203 99.5145 17.9819 99.5956 18.0181C99.729 18.0775 99.8653 18.104 99.973 17.9757C99.993 17.9518 99.9503 17.8361 99.9133 17.7838C99.8733 17.7274 99.8059 17.6957 99.7522 17.6545ZM32.8579 16.704C32.7097 16.704 32.6414 16.6897 32.5807 16.7077C32.5051 16.73 32.3693 16.6916 32.4047 16.8699C32.4113 16.9031 32.427 16.9378 32.447 16.9634C32.5128 17.0474 32.5893 17.1076 32.6939 17.0486C32.7804 16.9996 32.8677 16.9509 32.9488 16.8917C32.9907 16.8612 33.0194 16.8084 33.0539 16.7657C33.0259 16.7471 32.9993 16.7175 32.9693 16.7123C32.9054 16.7014 32.8398 16.703 32.8579 16.704ZM78.6398 16.2994C78.614 16.2766 78.5864 16.2321 78.5624 16.2343C78.4012 16.2501 78.2398 16.2702 78.0804 16.3008C78.0124 16.3138 78.0026 16.3846 78.05 16.467C78.0675 16.4977 78.0903 16.5347 78.118 16.5458C78.3261 16.6299 78.4841 16.4989 78.6423 16.3789C78.6526 16.3711 78.641 16.3268 78.6398 16.2994ZM128.929 16.0435C128.97 16.1197 129.01 16.1059 129.071 16.0269C129.155 15.9199 129.244 15.8148 129.344 15.7295C129.429 15.6578 129.438 15.604 129.343 15.6014C129.221 15.5983 129.085 15.6092 128.982 15.6699C128.924 15.7037 128.914 15.85 128.892 15.9482C128.886 15.975 128.916 16.0115 128.929 16.0435ZM94.1916 13.637L94.5125 13.614C94.6139 13.6068 94.6334 13.5593 94.5701 13.4733C94.5496 13.4456 94.5314 13.4109 94.5048 13.3954C94.4519 13.3642 94.3953 13.3365 94.3373 13.3228C94.3108 13.3164 94.2762 13.3436 94.2477 13.3609C94.1656 13.4111 94.0847 13.4641 94.0033 13.516L94.1916 13.637ZM64.2147 12.5027C64.1098 12.5027 64.0159 12.4717 63.981 12.5095C63.9178 12.5778 63.8571 12.6873 63.8567 12.7797C63.8564 12.8656 63.9396 12.8663 64.009 12.8374C64.1639 12.7728 64.3256 12.7297 64.4832 12.6725C64.513 12.6616 64.5358 12.6265 64.5619 12.6026C64.5331 12.5853 64.5058 12.5593 64.4752 12.5522C64.3767 12.5297 64.277 12.5141 64.2147 12.5027ZM95.1944 12.9414C95.2535 12.8874 95.3339 12.827 95.3996 12.7508C95.4828 12.6542 95.4484 12.5522 95.3805 12.4629C95.3602 12.4359 95.3305 12.4149 95.3015 12.3997C95.1593 12.3256 95.1425 12.4615 95.1018 12.5546C95.0725 12.6213 95.0501 12.6923 95.0168 12.7562C94.9759 12.8348 94.9885 12.8941 95.0702 12.9307C95.0996 12.9437 95.1358 12.9371 95.1944 12.9414ZM139.397 12.4811C139.465 12.4747 139.535 12.4766 139.6 12.4591C139.655 12.4442 139.706 12.407 139.759 12.3796C139.704 12.3386 139.652 12.2911 139.594 12.2579C139.481 12.1933 139.371 12.0609 139.235 12.1881C139.188 12.2319 139.165 12.3117 139.14 12.3794C139.136 12.391 139.176 12.4378 139.2 12.4451C139.264 12.4641 139.331 12.47 139.397 12.4811ZM112.395 10.603C112.426 10.4961 112.394 10.4423 112.307 10.4392C112.177 10.4343 112.047 10.4444 111.917 10.453C111.886 10.4551 111.855 10.476 111.824 10.4883C111.86 10.5335 111.888 10.5908 111.931 10.6215C112.014 10.6797 112.107 10.7641 112.192 10.7595C112.27 10.7551 112.343 10.6466 112.395 10.603ZM78.9175 10.2422C78.9451 10.1024 78.8781 9.98904 78.7827 9.97571C78.6097 9.95181 78.388 10.1083 78.4257 10.2463C78.4458 10.3204 78.5547 10.3943 78.633 10.4111C78.7643 10.4388 78.8949 10.4058 78.9175 10.2422ZM135.12 9.90212C135.094 9.81158 135.073 9.70337 135.031 9.60711C134.979 9.488 134.872 9.48263 134.785 9.53197C134.743 9.55569 134.716 9.65074 134.713 9.71549C134.705 9.87893 134.791 9.98748 134.913 10.0616C134.941 10.0789 134.994 10.1017 135.005 10.0891C135.046 10.0399 135.076 9.97744 135.12 9.90212ZM104.794 9.50843C104.818 9.35053 104.714 9.31348 104.617 9.30119C104.506 9.28682 104.33 9.18727 104.311 9.3978C104.298 9.54496 104.442 9.65888 104.576 9.68416C104.672 9.70233 104.758 9.62598 104.794 9.50843ZM127.464 8.28371C127.582 8.27678 127.684 8.28042 127.783 8.2612C127.844 8.24943 127.9 8.20269 127.958 8.17152C127.899 8.13845 127.842 8.07821 127.783 8.07699C127.585 8.07301 127.386 8.08721 127.187 8.10158C127.16 8.10365 127.135 8.14676 127.109 8.17083C127.135 8.18953 127.158 8.21827 127.186 8.22536C127.283 8.24995 127.382 8.26709 127.464 8.28371ZM11.9251 4.39037C11.8511 4.26226 11.7637 4.1447 11.6138 4.14712C11.5732 4.14782 11.4946 4.24131 11.4992 4.25031C11.5666 4.38345 11.6517 4.50083 11.8049 4.50429C11.8354 4.50481 11.8709 4.49321 11.8951 4.4733C11.9125 4.45893 11.9148 4.42136 11.9251 4.39037ZM82.1793 7.13569C82.2704 7.08583 82.4238 7.13794 82.377 6.97433C82.3524 6.88846 82.2335 6.77575 82.1659 6.78285C82.0925 6.79064 82.0294 6.92291 81.9617 7.00099L82.1793 7.13569ZM131.389 14.7949C131.465 14.7399 131.55 14.6848 131.629 14.6192C131.703 14.5565 131.709 14.4935 131.652 14.4515C131.53 14.3592 131.271 14.4888 131.249 14.6646C131.245 14.6957 131.328 14.7404 131.389 14.7949ZM35.6607 18.0884L35.5 18.202C35.5201 18.2305 35.5352 18.2707 35.5615 18.2856C35.6472 18.3344 35.7377 18.3723 35.8251 18.4175C35.9217 18.4675 36.0077 18.4667 36.0148 18.3247C36.0177 18.2662 35.9723 18.1727 35.9271 18.1497C35.8431 18.1073 35.7431 18.105 35.6607 18.0884ZM117.808 14.2316C117.778 14.2129 117.745 14.175 117.723 14.1822C117.632 14.2131 117.537 14.2449 117.457 14.301C117.406 14.337 117.366 14.4102 117.342 14.4764C117.321 14.5337 117.53 14.6054 117.601 14.5552C117.707 14.4798 117.801 14.3893 117.808 14.2316Z" fill="#E1AD00"/>
<path d="M91.4265 9.9533C91.3339 9.93357 91.2359 9.91556 91.1396 9.89011C91.1086 9.88197 91.0819 9.8541 91.0531 9.83523C91.0763 9.80839 91.0952 9.77238 91.1232 9.75611C91.2408 9.68772 91.3571 9.59233 91.4817 9.5738C91.5463 9.56428 91.6605 9.6782 91.6937 9.76493C91.7533 9.91971 91.6173 9.92231 91.5299 9.9469C91.4985 9.95555 91.4643 9.9514 91.4265 9.9533Z" fill="#E1AD00"/>
<path d="M28.8718 8.38908C29.1124 8.34008 29.1686 8.4076 29.1884 8.53451C29.2117 8.68409 29.1229 8.71872 29.0243 8.74901C28.8989 8.78745 28.8403 8.70279 28.8275 8.58956C28.8135 8.46681 28.8804 8.38769 28.8718 8.38908Z" fill="#E1AD00"/>
</svg>
