<svg width="184" height="17" viewBox="0 0 184 17" fill="none" xmlns="http://www.w3.org/2000/svg">
<g opacity="0.71" filter="url(#filter0_d_1_913)">
<path d="M177.518 0.505764C173.616 0.57523 165.577 0.608356 155.095 0.616359C154.778 0.651121 153.164 0.694238 151.482 0.678872C152.144 0.69897 151.91 0.694121 151.136 0.674841C150.695 0.66859 150.257 0.658074 149.841 0.642007C149.552 0.634646 149.239 0.6267 148.909 0.618287C135.09 0.616944 118.116 0.581364 101.044 0.531646C101.175 0.532288 101.318 0.532931 101.483 0.533632C100.961 0.548589 100.163 0.559397 99.2378 0.566758C108.764 0.559163 117.628 0.615016 120.29 0.63266C92.0757 0.878037 90.2253 1.10262 71.1051 1.01708C65.8737 1.03192 74.9867 0.769662 75.1705 0.842691C79.6668 0.675367 86.8596 0.60228 94.2313 0.577041C92.8217 0.573126 91.6574 0.563603 91.2122 0.550458C92.7386 0.541227 93.3735 0.524752 93.901 0.510088C87.2428 0.489289 80.6349 0.466796 74.2591 0.443719C73.7037 0.444829 73.3452 0.44664 73.442 0.440739C72.3911 0.436942 71.347 0.433086 70.3101 0.429288C68.8672 0.464108 67.6174 0.503544 67.2331 0.54111C67.3727 0.507926 68.3554 0.47778 66.7488 0.476436C66.9107 0.453884 67.0892 0.435072 67.2746 0.417896C50.2481 0.353747 35.5002 0.289014 26.8431 0.24876C25.8779 0.400778 26.6376 0.387632 24.7786 0.443894C25.2621 0.300056 25.359 0.28989 26.2563 0.246015C25.353 0.241808 24.5194 0.237835 23.7645 0.234213C23.6343 0.246774 23.4912 0.247475 23.3632 0.259452C23.3946 0.247942 23.4385 0.239588 23.4865 0.232928C21.7555 0.224632 20.4485 0.218088 19.6363 0.213882C15.0987 0.190103 5.59176 -0.603343 4.26706 1.0255C3.12844 2.42573 5.95211 5.27672 6.71495 7.04403C6.83825 7.32977 7.53883 7.54693 8.39376 7.56814C20.722 7.87399 33.0707 8.16458 45.4274 8.09255C46.6504 7.82456 47.8669 7.56639 49.1136 7.31505C49.9453 7.12985 50.7777 6.94488 51.6151 6.76202C52.7965 6.66685 50.5078 7.03065 49.1136 7.31505C50.0674 7.31178 50.4945 7.3414 50.5645 7.39141C50.7225 7.25371 51.8301 7.36162 52.3928 7.3251C51.4418 7.43984 51.8452 7.37172 50.5654 7.39258C50.7738 7.55494 47.2752 7.92814 45.7548 8.09074C45.9705 8.08939 46.1862 8.08875 46.4018 8.08717C51.12 8.05229 58.3986 7.97412 67.1662 7.87404C68.0239 7.84483 69.1037 7.8349 70.2585 7.83858C81.2728 7.71163 94.2884 7.55616 107.403 7.41011C107.799 7.34578 112.923 7.2131 113.06 7.26767C117.556 7.10035 124.749 7.0272 132.121 7.00202C130.711 6.99811 129.547 6.98858 129.102 6.97544C133.029 6.95166 131.058 6.8798 136.53 6.91549C136.333 6.9006 135.657 6.87694 136.021 6.86227C138.339 6.94535 137.052 6.9492 139.373 6.95861C138.851 6.97357 138.053 6.98438 137.127 6.99174C141.342 6.98835 145.425 6.99746 148.901 7.01008C160.22 6.92957 169.397 6.90375 174.346 6.97439C175.209 6.98671 176.135 6.99261 176.858 6.83294C177.765 6.63243 178.064 6.23808 178.274 5.87953C179.15 4.38273 179.726 2.86595 179.996 1.34297C180.079 0.871085 178.92 0.480818 177.518 0.505764ZM83.25 0.542454C83.2457 0.54742 83.2049 0.554723 83.1271 0.563779C82.8208 0.540409 83.2077 0.549582 83.25 0.542454ZM80.7957 0.615483L82.5643 0.610692C82.0788 0.672154 78.4163 0.677061 80.7957 0.615483ZM73.0601 0.545726C73.6447 0.533457 74.3718 0.529426 75.0707 0.53036C74.7112 0.540409 72.9403 0.617762 73.0601 0.545726ZM130.531 2.45295C128.531 2.50454 129.133 2.51044 123.856 2.56238C125.619 2.49741 135.24 2.08512 131.139 2.40084C129.061 2.42298 127.392 2.42018 130.531 2.45295ZM127.516 2.57027C126.767 2.57868 126.086 2.58195 126.314 2.56069C127.271 2.53913 129.397 2.46949 127.516 2.57027ZM120.512 1.36535C122.43 1.36359 120.8 1.38001 120.208 1.40829C118.192 1.40525 119.001 1.40332 120.512 1.36535ZM119.556 1.38229L119.575 1.36792C120.222 1.36388 120.015 1.36698 119.556 1.38229ZM113.005 1.42266C109.31 1.42096 117.376 1.37247 119.297 1.29051C134.864 0.994591 114.846 1.50381 113.005 1.42266ZM112.76 6.76482C110.515 6.80052 105.927 6.88739 105.123 6.96609C105.262 6.9329 106.245 6.90276 104.638 6.90141C106.67 6.61847 110.703 6.78556 112.914 6.7071C115.865 6.71762 112.194 6.75413 112.76 6.76482ZM103.96 6.89937C103.786 6.90071 103.622 6.90177 103.468 6.90241C103.618 6.90141 104.112 6.87612 103.96 6.89937ZM102.79 6.74502L102.782 6.69752C104.041 6.71908 103.576 6.73292 102.79 6.74502ZM102.78 6.68583C104.62 6.53639 105.188 6.59972 108.466 6.63179C107.77 6.69109 104.96 6.64996 102.78 6.68583ZM108.641 5.8266C112.777 5.67815 103.342 6.07724 102.663 5.9868C104.193 5.72232 107.057 5.92966 108.641 5.8266ZM104.993 2.14348C105.168 2.11667 105.426 2.12643 105.574 2.12567C105.376 2.1318 105.181 2.13782 104.993 2.14348ZM109.743 2.67905C109.988 2.65276 111.369 2.61917 110.456 2.68075C112.527 2.61186 111.39 2.74238 109.743 2.67905ZM112.846 2.78854C113.742 2.76242 113.792 2.63722 115.723 2.65329C114.811 2.74489 111.176 3.01785 112.846 2.78854ZM114.092 5.74861C113.703 5.73821 112.909 5.8023 112.664 5.73558C112.834 5.7246 113.353 5.7347 114.092 5.74861ZM112.179 5.7621C112.108 5.74832 111.378 5.73167 111.36 5.72214C111.752 5.73383 113.302 5.77671 112.179 5.7621ZM110.351 5.71899C109.369 5.73821 111.515 5.80762 109.418 5.78606C109.545 5.77542 109.627 5.76444 109.678 5.75311C109.664 5.71805 109.924 5.68937 110.351 5.71899ZM111.72 6.24608C113.041 6.20203 114.813 6.16207 115.325 6.12462C123.144 6.27337 114.778 6.22528 111.72 6.24608ZM117.466 1.94701C117.565 1.94338 117.667 1.94 117.767 1.93643C117.879 1.9473 117.563 1.94309 117.466 1.94701ZM115.443 1.3224C116.268 1.30207 117.058 1.28718 117.563 1.2922L115.443 1.3224ZM134.199 6.20291C133.539 6.29784 132.585 6.23545 131.67 6.25736C132.425 6.20384 133.212 6.21447 134.199 6.20291ZM133.133 0.614256C133.135 0.615308 133.139 0.662864 133.144 0.724209C132.861 1.06645 129.257 0.862321 130.411 0.97058C131.153 0.892526 132.893 1.07405 133.151 0.808689C133.158 0.904152 133.165 0.998856 133.166 0.998856C125.623 1.15268 129.734 0.998564 123.932 1.04904C131.798 0.943763 126.157 1.01907 122.313 0.97537C125.051 0.776498 132.081 1.13574 133.133 0.614256ZM120.394 1.04262C120.228 1.04075 120.062 1.0387 119.892 1.03642C120.053 1.03987 120.229 1.03005 120.394 1.04262ZM122.409 1.1226C120.155 1.11588 115.284 1.32492 111.934 1.23827C113.919 1.2343 120.638 0.991612 122.409 1.1226ZM81.125 1.42061C78.8346 1.46104 84.0706 1.47705 79.3146 1.50731C78.2692 1.50182 77.2439 1.49686 76.2611 1.49329C77.5742 1.46391 79.3786 1.43797 81.125 1.42061ZM78.0275 7.07067C78.0114 7.06693 77.9999 7.06412 77.9847 7.06062C77.5321 7.01318 74.2189 7.12278 76.5956 6.99705C74.6642 7.06459 75.2156 6.94021 76.1828 6.91479C76.5601 6.89581 77.0085 6.83137 77.3515 6.92823C77.2652 6.91585 77.0294 6.9131 76.7749 6.91316C77.1625 6.92192 77.5515 6.95213 77.8401 7.01779C78.0143 7.04461 78.3017 7.08632 78.039 7.07335L78.0341 7.07219C78.0324 7.06874 78.0214 7.06576 78.0039 7.06319C78.0116 7.0657 78.0201 7.06798 78.0275 7.07067ZM76.9896 7.39194C76.5339 7.39597 76.639 7.38113 75.936 7.27895C76.2897 7.3112 76.6537 7.33871 76.9896 7.39194ZM77.6474 6.97666C77.342 6.91181 78.1255 7.01674 78.2739 7.07213L77.6474 6.97666ZM78.1754 6.1009C78.5623 6.10388 79.0715 6.04002 78.3636 6.13081C78.3015 6.12094 78.2366 6.11054 78.1754 6.1009ZM76.5967 2.59965C76.7486 2.60468 76.069 2.62226 75.7905 2.63471C76.0173 2.62332 76.2901 2.61169 76.5967 2.59965ZM75.6873 6.91754C75.6641 6.91719 74.8208 6.92519 74.7722 6.9256C74.875 6.92484 76.5884 6.84761 75.6873 6.91754ZM75.4846 6.9301C75.2538 6.93425 74.9106 6.98893 74.6552 6.94167C74.9316 6.93752 75.2082 6.93384 75.4846 6.9301ZM74.74 7.03053C74.6879 7.03421 74.6392 7.02218 74.5889 7.01838C74.6441 7.01102 74.6897 7.02399 74.74 7.03053ZM74.1115 6.95008C74.2031 6.94512 74.5556 6.99174 74.3366 6.99028C74.2567 6.9762 73.9754 6.96428 74.1115 6.95008ZM73.9728 7.10712C73.8821 7.09123 73.5838 7.07587 73.8093 7.06827C73.9558 7.08884 74.3716 7.10876 73.9728 7.10712ZM72.568 7.09275C71.3154 6.98607 73.9206 6.98432 73.0768 7.05367C72.6262 7.01055 73.1924 7.06938 72.568 7.09275ZM71.3948 6.82225C71.7131 6.88716 72.1603 6.92438 71.7659 6.92806C71.1005 7.00442 70.1279 6.83434 71.3948 6.82225ZM71.2195 6.96685C71.0997 6.94915 70.9835 6.93203 70.8699 6.91544C70.9686 6.9329 71.1541 6.94745 71.2195 6.96685ZM68.2533 7.19435C68.601 7.14428 69.0095 7.13896 69.3527 7.12722C69.0695 7.2228 68.6221 7.17501 68.2533 7.19435ZM68.8963 7.31727C68.7246 7.33889 68.541 7.36162 68.3631 7.38376C68.5129 7.33275 68.6837 7.3154 68.8963 7.31727ZM68.9632 6.45553C68.7116 6.70137 66.0584 6.67018 67.5465 6.58716C66.4415 6.62478 68.6067 6.43876 68.9632 6.45553ZM69.1769 6.92391C68.9573 6.94985 68.7569 6.98303 68.5434 7.00033C68.5618 6.99968 68.5776 6.99945 68.5882 7.00003C68.4881 7.01324 68.3882 7.02638 68.2947 7.039C68.1978 7.03287 68.3592 7.01242 68.4831 7.00371C68.4383 7.00664 68.3941 7.0102 68.3478 7.01131C68.5606 6.92607 68.8784 6.93752 69.1769 6.92391ZM68.988 6.48305C69.0241 6.47545 69.0605 6.45115 69.11 6.46353C69.0701 6.47136 69.0364 6.49409 68.988 6.48305ZM68.8205 6.57781C68.8755 6.54381 68.8947 6.50402 68.9424 6.4966C68.9808 6.49128 68.8398 6.56203 68.8205 6.57781ZM67.7202 7.18243C67.8503 7.17811 67.9776 7.17384 68.0993 7.16981C67.9902 7.18547 67.5314 7.23075 67.7202 7.18243ZM68.0058 7.10502C69.6023 7.05215 68.1156 7.09982 68.3497 7.06243C68.4369 7.04765 68.5058 7.03888 68.5663 7.03275C68.8568 6.99419 69.2291 6.94891 69.5839 6.90848C70.3027 6.98099 69.3071 7.02282 68.782 7.03193C68.9232 7.07137 68.448 7.24185 68.0058 7.10502ZM69.5873 6.21021C69.6872 6.20799 69.8168 6.20589 69.9857 6.20384C69.9321 6.21073 69.8131 6.21985 69.7002 6.22657C69.7322 6.22528 69.7609 6.224 69.7937 6.22265C69.7994 6.22184 69.213 6.26635 69.3956 6.23936C69.423 6.23819 69.4538 6.23697 69.4817 6.23574C69.4188 6.23586 69.4254 6.22926 69.5873 6.21021ZM69.7379 7.01452L68.9123 7.10753C69.0199 7.09503 69.454 7.02638 69.6579 7.01528C69.6342 7.01575 69.6108 7.01674 69.5856 7.01581C69.5886 7.0161 69.9834 6.96036 69.9862 6.96188C69.9035 6.98841 69.8109 7.00821 69.7041 7.01446C69.7153 7.01446 69.7297 7.01376 69.7379 7.01452ZM70.0634 6.97199C70.1483 6.97608 69.8329 7.00038 69.8419 7.00284C69.916 6.98741 69.9746 6.95137 70.0634 6.97199ZM69.9494 6.58575C70.0079 6.56536 70.0736 6.56198 70.1459 6.57699C70.0757 6.57997 70.0101 6.58295 69.9494 6.58575ZM68.9501 7.11653C69.244 7.08334 69.5124 7.05232 69.7479 7.02428C69.741 7.02679 69.733 7.0286 69.7259 7.03094C69.7599 7.02533 69.7984 7.01931 69.8459 7.01254C69.8848 7.01154 69.917 7.01078 69.9451 7.0102C69.89 7.00827 69.8846 7.00108 70.1088 6.98023C70.7973 7.02592 69.566 7.11057 69.5747 7.06827C69.3883 7.10052 69.1644 7.10309 68.9501 7.11653ZM70.3103 7.09369C69.2955 7.24757 70.2803 7.08013 70.7371 7.09976C70.5892 7.18471 70.3226 7.15152 69.6252 7.17332C69.4507 7.18056 69.1538 7.11437 70.3103 7.09369ZM70.4685 6.4581C70.4809 6.46628 70.5628 6.47732 70.6596 6.48889C70.5451 6.4737 70.4707 6.45734 70.5477 6.43812C70.7078 6.4706 71.4893 6.53861 71.0489 6.5403C71.0116 6.53066 70.9358 6.52131 70.8531 6.51185C71.0347 6.53399 71.1406 6.55269 70.774 6.55111C70.6197 6.5188 70.1747 6.5108 70.4685 6.4581ZM71.4063 6.82155C71.5322 6.81174 72.3082 6.89248 72.0285 6.90802L71.4063 6.82155ZM72.0923 6.9169L72.0502 6.91105C72.1494 6.89265 72.2855 6.90241 72.0923 6.9169ZM71.6472 6.80788C71.8825 6.79246 72.1197 6.85503 72.3406 6.87261C72.1074 6.90118 71.9016 6.83137 71.6472 6.80788ZM72.375 6.87746C72.3642 6.88208 72.3385 6.88733 72.2957 6.89353C72.1934 6.88915 72.3373 6.87139 72.375 6.87746ZM73.0277 6.9901C73.1758 6.99781 73.3176 7.02019 73.4682 7.03328C73.315 7.0404 73.176 7.0029 73.0277 6.9901ZM73.9378 7.10753C73.5973 7.11127 73.2588 7.11524 72.9219 7.11933C73.2861 7.10706 73.6121 7.05209 73.9378 7.10753ZM73.2803 6.07782C72.9018 6.10914 72.4788 6.10733 72.0816 6.12795C72.4709 6.11194 72.778 6.09354 73.2803 6.07782ZM72.2872 6.34821C72.1934 6.36889 72.1041 6.3967 72.0125 6.42415C72.8765 6.26209 74.4901 6.32373 73.3766 6.37578C73.9962 6.37227 72.3176 6.51763 71.6787 6.51582C71.6948 6.50887 71.7132 6.50233 71.7316 6.49584C71.6352 6.51442 71.532 6.5271 71.4143 6.5261C69.6068 6.35399 71.8735 6.35767 72.2872 6.34821ZM69.0206 0.832759L66.0161 0.971982C63.8831 0.981213 67.5459 0.860686 69.0206 0.832759ZM66.0709 0.474391C65.8968 0.475735 65.7326 0.476786 65.5788 0.477487C65.7284 0.476436 66.2221 0.451138 66.0709 0.474391ZM66.1843 0.879498C65.9689 0.919459 64.4694 0.973092 63.906 0.952644C64.4457 0.927288 65.0308 0.903919 66.1843 0.879498ZM65.2031 1.16273C68.4248 1.11962 67.343 1.14199 64.9052 1.24388C66.6048 1.19446 68.8145 1.08918 70.8423 1.14141C69.3408 1.40443 60.2189 1.36908 65.2031 1.16273ZM61.4585 7.55762C62.2102 7.54419 65.9206 7.31768 63.8833 7.52105C63.22 7.51083 60.6785 7.69936 61.4585 7.55762ZM60.9095 7.24711C61.1663 7.24699 61.7313 7.20621 61.798 7.22514C61.5358 7.2259 60.9916 7.26738 60.9095 7.24711ZM62.3431 6.92975C62.6358 6.85982 63.0431 6.8982 63.4612 6.86998L62.3431 6.92975ZM63.236 7.44247C63.6561 7.42816 64.2959 7.39988 63.5257 7.44475C63.1888 7.45334 63.1397 7.45065 63.236 7.44247ZM63.2564 7.23355C64.0291 7.20323 65.3658 7.16052 66.4475 7.13049C65.8383 7.26971 63.1234 7.28864 63.2564 7.23355ZM65.3894 7.13376C65.7 7.12225 66.0102 7.11022 66.321 7.09883C66.0868 7.12851 65.4856 7.13505 65.3894 7.13376ZM66.1772 7.12074L66.5563 7.10157C66.4536 7.12851 66.2939 7.11279 66.1772 7.12074ZM65.2715 7.0872C65.6861 7.08399 67.2609 6.94254 66.6548 7.0754C66.3123 7.0626 65.255 7.15439 65.2715 7.0872ZM66.4918 6.7095C65.9868 6.79836 66.7026 6.67871 66.8929 6.68688C67.7308 6.69378 65.4725 6.7976 66.4918 6.7095ZM65.0592 6.62531C63.589 6.82961 64.7068 6.80718 62.668 6.86893C63.2812 6.68648 63.267 6.71925 65.0592 6.62531ZM61.1217 6.85947C61.5098 6.73859 62.1057 6.75378 62.5737 6.73456C62.2099 6.86601 61.5859 6.81781 61.1217 6.85947ZM61.8141 6.6346C61.6525 6.67462 61.4361 6.66726 61.2528 6.68443C61.3849 6.63582 61.7202 6.63629 61.8141 6.6346ZM61.1774 2.77294C61.1207 2.7751 61.0437 2.79076 61.0064 2.77399C61.0633 2.77206 61.121 2.76861 61.1774 2.77294ZM59.7041 7.05162C61.1996 6.65463 61.1174 6.88926 59.6519 7.07242C60.0351 6.98438 60.1912 6.94979 59.7041 7.05162ZM55.4138 1.88239C57.9987 1.72845 53.4845 1.95116 53.1061 1.90447C54.2587 1.84436 55.4719 1.7857 56.7609 1.72979C54.2235 1.8745 64.0607 1.51719 55.4138 1.88239ZM53.9905 3.70549L54.3371 3.69328C54.4126 3.70187 54.0787 3.7191 53.9905 3.70549ZM53.5668 3.71752L53.9157 3.70783C54.4219 3.72658 53.0875 3.76029 53.5668 3.71752ZM55.9453 0.900647C61.3132 1.00265 54.766 0.958486 53.0176 0.861153C53.7739 0.868456 54.7984 0.884581 55.9453 0.900647ZM48.22 1.54879C48.2486 1.55692 48.3598 1.56959 48.288 1.57111C48.2443 1.56282 48.1059 1.55096 48.22 1.54879ZM47.8635 1.59477C47.8137 1.58858 47.7653 1.58204 47.7138 1.57619C47.8579 1.55522 48.1182 1.588 47.8635 1.59477ZM46.0843 1.32129C46.5563 1.30511 46.9948 1.39952 47.415 1.47162C46.9309 1.52928 46.5374 1.381 46.0843 1.32129ZM47.2624 2.28294C46.4299 2.29685 46.8884 2.28136 47.1525 2.26991C47.2038 2.27599 47.2624 2.28294 47.2624 2.28294ZM46.5427 2.38343C46.1208 2.36216 45.5423 2.37151 45.9112 2.33687C46.066 2.35556 46.8211 2.33178 46.5427 2.38343ZM47.5012 2.24555C47.709 2.26086 47.5501 2.26173 47.4336 2.27126C47.2347 2.25157 47.38 2.2324 47.5012 2.24555ZM47.8638 1.55984C47.7967 1.56387 47.7322 1.56778 47.6712 1.57164C47.4431 1.5603 47.7957 1.53915 47.8638 1.55984ZM47.4894 1.40945C47.5307 1.42318 47.5723 1.43954 47.6111 1.45952C46.5452 1.26252 47.0982 1.27976 47.865 1.44416C47.7074 1.43201 47.5862 1.42032 47.4894 1.40945ZM47.0685 1.28858C46.9673 1.28758 46.8662 1.28618 46.7649 1.28536C46.746 1.28309 46.7307 1.28104 46.717 1.27905C46.7342 1.28455 46.7045 1.28799 46.5845 1.2839L46.412 1.26018C46.4845 1.25487 46.604 1.26287 46.6714 1.27123C46.5578 1.24587 46.9763 1.25335 47.0685 1.28858ZM46.4555 1.28297L46.339 1.28209C46.087 1.25604 46.3246 1.24739 46.4555 1.28297ZM46.1623 1.28087L46.0185 1.27981C45.8311 1.24657 46.083 1.26275 46.1623 1.28087ZM45.9375 1.70993C45.7428 1.73335 45.5559 1.70847 45.3689 1.69105C45.5758 1.67236 45.7594 1.66272 45.9375 1.70993ZM45.6266 1.65641C45.4425 1.66564 45.2777 1.69217 45.1048 1.66757C45.2779 1.66482 45.4626 1.63234 45.6266 1.65641ZM44.5846 0.880257C44.7162 0.909177 45.29 0.97426 44.9624 0.965029C44.8745 0.94131 44.3975 0.878271 44.5846 0.880257ZM44.4269 0.923082C44.2405 0.892994 44.1321 0.862497 44.4987 0.879965C44.7334 0.930326 45.0944 1.0009 44.6122 0.917239C45.0908 1.00499 44.6891 0.965146 44.4311 0.923783C44.5026 0.936051 44.5705 0.950015 44.6331 0.965088C44.2724 0.981622 44.0116 0.944581 43.7128 0.877687C43.9612 0.865242 44.2111 0.886333 44.4269 0.923082ZM45.1341 1.57701C42.9663 1.36353 43.2174 1.39643 45.2347 1.60996C44.6562 1.64992 43.3003 1.52583 43.026 1.48874C41.3119 1.37919 42.2876 1.29676 43.6081 1.37125C43.5661 1.37995 45.1513 1.53974 45.1341 1.57701ZM43.6414 1.86241C43.4571 1.86142 43.2694 1.85371 43.0873 1.84629C43.2736 1.82169 43.4654 1.84728 43.6414 1.86241ZM42.9918 1.83489C42.8969 1.82368 42.8005 1.81246 42.7024 1.8013C42.8543 1.78611 43.4043 1.82619 42.9918 1.83489ZM41.1274 1.88929C37.2166 1.97762 32.0892 1.91166 28.7935 1.9518C30.2905 1.89115 35.1242 1.88853 34.2605 1.79388C32.788 1.83653 27.3389 1.84149 27.8078 1.73008C30.4464 1.84009 39.6371 1.61014 31.6345 1.69912C33.0346 1.70391 28.5318 1.81912 27.9387 1.70876C32.1483 1.69795 30.2564 1.61773 27.4147 1.69999C27.0434 1.2041 38.7597 1.46367 40.4248 1.63918C40.149 1.59074 39.8445 1.53904 39.4785 1.49271C40.4742 1.5988 41.4574 1.70134 42.3777 1.80206C41.6754 1.85137 41.2006 1.77559 40.616 1.67283C40.6901 1.7243 39.5813 1.76145 36.5542 1.75649C30.2651 1.74387 38.8743 1.77232 41.1274 1.88929ZM33.6705 2.45056C33.9627 2.43157 34.6578 2.37554 34.9555 2.40014C35.5609 2.42853 34.0038 2.46388 33.6705 2.45056ZM33.0997 2.45009C32.7849 2.44705 32.4494 2.45494 32.1278 2.43952C32.1632 2.43578 32.2237 2.43262 32.298 2.43028C31.8296 2.42736 31.2464 2.41451 30.6088 2.38617C31.3333 2.36555 31.81 2.34721 31.5311 2.32968C33.6676 2.34984 33.7735 2.41299 32.9086 2.42783C33.0535 2.43134 33.1465 2.43852 33.0997 2.45009ZM32.3737 2.51751L31.9107 2.51021C32.0786 2.50752 32.9266 2.47918 32.3737 2.51751ZM19.5691 3.38445C19.7387 3.38229 19.9141 3.37955 20.0937 3.37633C19.7556 3.41144 18.615 3.44878 19.5691 3.38445ZM19.1453 3.45415C18.9336 3.45999 18.7236 3.46584 18.5132 3.47168C18.7841 3.45182 19.8156 3.40794 19.1453 3.45415ZM18.6811 3.43183C18.9048 3.36412 19.1986 3.36926 19.4812 3.36108C19.7701 3.35694 18.8585 3.41285 18.6811 3.43183ZM19.592 3.38264C19.8695 3.3539 20.149 3.3508 20.434 3.34911C20.161 3.37329 19.883 3.37166 19.592 3.38264ZM22.564 3.31814C21.7448 3.39742 20.9325 3.40321 20.1383 3.42663C20.9393 3.34817 21.7304 3.33964 22.564 3.31814ZM21.9667 2.90135C21.8369 2.96795 21.2292 2.96854 21.7443 2.92606C21.634 2.92063 21.7319 2.91134 21.9667 2.90135ZM21.6409 2.26413C21.5826 2.19309 22.3512 2.20308 21.7907 2.28399C21.3829 2.28709 22.0984 2.25688 21.6409 2.26413ZM23.3261 1.85692C24.1882 1.74375 23.8689 1.86551 23.1631 1.87719C23.2238 1.86562 23.3204 1.85902 23.3929 1.85557C23.3738 1.85598 23.352 1.85645 23.3261 1.85692ZM35.1203 1.01031C34.6316 0.966081 29.7091 1.16934 32.2917 0.937454C33.755 0.86016 35.4825 0.809273 35.1203 1.01031ZM32.9803 0.490457C33.079 0.507926 33.2646 0.522532 33.3301 0.54187C33.2103 0.524168 33.0939 0.50705 32.9803 0.490457ZM34.1606 0.486076C34.2598 0.467731 34.3959 0.477429 34.2027 0.491918L34.1606 0.486076ZM34.967 0.698678C35.327 0.699496 35.7289 0.702242 35.5675 0.710596C35.3662 0.707909 35.1572 0.725436 34.967 0.698678ZM30.3807 0.982673C30.8527 0.924016 31.253 0.872136 31.7484 0.869157C31.4233 0.895798 29.7623 1.12166 30.3807 0.982673ZM30.4735 0.958778C30.6233 0.907833 30.7941 0.890423 31.0067 0.892292C30.8351 0.913909 30.6514 0.936636 30.4735 0.958778ZM30.3637 0.76937C30.7114 0.719301 31.12 0.713985 31.4632 0.702242C31.18 0.797822 30.7326 0.750032 30.3637 0.76937ZM30.6479 0.902108C28.9345 1.07224 29.0893 1.10355 30.6753 0.901406C30.4237 0.958544 30.1242 1.00785 29.907 1.04004C30.0216 1.02573 30.1726 1.00733 30.3681 0.984192C28.0218 1.42371 27.7424 0.937162 30.6479 0.902108ZM30.1418 1.09192C30.1008 1.09759 30.0002 1.11442 29.9265 1.11255L30.1418 1.09192ZM28.2876 0.695757L28.6667 0.676652C28.564 0.703527 28.4043 0.687811 28.2876 0.695757ZM27.4998 0.708785C27.8104 0.697276 28.1206 0.68524 28.4314 0.673906C28.1973 0.703527 27.5961 0.710129 27.4998 0.708785ZM28.5582 0.705513C27.9488 0.844736 25.2338 0.863665 25.3668 0.80863C26.1396 0.77825 27.4762 0.735543 28.5582 0.705513ZM26.7892 1.10618C27.3424 1.08158 26.0869 1.20924 25.9509 1.2454C25.0563 1.28536 26.6298 1.14182 26.7892 1.10618ZM24.9316 1.26994C25.4477 1.21584 26.0527 1.10507 26.6459 1.10945C26.1573 1.17354 25.5255 1.27882 24.9316 1.26994ZM26.8708 1.14854C26.6371 1.23489 26.3182 1.24166 25.9922 1.24429C26.276 1.21315 26.5703 1.18114 26.8708 1.14854ZM25.9712 1.62428C26.0785 1.61318 26.1991 1.59921 26.3393 1.58502C26.1737 1.64636 25.4376 1.7458 25.9712 1.62428ZM26.4997 1.58034C26.4011 1.61037 26.287 1.62492 26.1569 1.63929C26.2689 1.61639 26.3602 1.57725 26.4997 1.58034ZM27.0841 1.71057C26.8686 1.71664 26.6596 1.72307 26.458 1.72985C26.6563 1.69462 26.8726 1.70379 27.0841 1.71057ZM27.127 1.74942C26.9702 1.79458 26.7422 1.76519 26.5188 1.77635C25.8387 1.77448 26.8499 1.7576 27.127 1.74942ZM26.5688 1.60733L26.7593 1.57322C27.89 1.50819 26.167 1.67698 26.5688 1.60733ZM27.3923 1.00522C26.4928 1.14824 26.1562 1.10782 27.1743 0.980687C27.9823 0.943822 26.5337 1.17962 27.3923 1.00522ZM25.6362 1.01977C25.2992 1.02836 25.2501 1.02573 25.3464 1.01755C25.7666 1.00318 26.4065 0.974903 25.6362 1.01977ZM25.9937 1.09607C25.3304 1.08585 22.7889 1.27438 23.5689 1.13265C24.3206 1.11921 28.0312 0.892701 25.9937 1.09607ZM23.0199 0.822185C23.2767 0.822009 23.8417 0.78123 23.9084 0.800159C23.6462 0.800977 23.1021 0.842399 23.0199 0.822185ZM23.7732 0.54111C22.1502 0.693128 22.4258 0.44886 24.3396 0.40475C23.2377 0.524576 24.2959 0.431625 23.7732 0.54111ZM23.1713 1.20702C23.9643 1.18032 24.8119 1.15508 25.7156 1.13194C25.3103 1.22712 22.2439 1.3768 23.1713 1.20702ZM23.9695 1.6598C24.0756 1.66231 24.3626 1.65548 24.5369 1.65501C24.4148 1.65565 24.2927 1.6532 24.1791 1.65419C24.4394 1.64636 24.7745 1.62469 24.9168 1.63444C24.8015 1.64969 24.6768 1.65407 24.5518 1.65501C24.6926 1.65489 24.7481 1.65962 24.5416 1.67861C24.291 1.674 23.3731 1.67376 23.9695 1.6598ZM24.6347 1.70186C24.4471 1.75316 24.4165 1.75018 24.2535 1.7576C23.9835 1.7659 24.5581 1.708 24.6347 1.70186ZM24.2355 2.21324C24.4677 2.20722 25.2742 2.18689 25.2742 2.18689C23.7369 2.27038 23.8171 2.2504 24.2355 2.21324ZM27.4552 2.51214C28.3731 2.50104 27.5404 2.44068 28.4661 2.46499C28.8954 2.49268 27.7844 2.53101 27.4552 2.51214ZM26.0331 2.72871C23.742 2.76213 27.2433 2.67175 27.7332 2.64037C28.7434 2.73508 26.1758 2.71749 26.0331 2.72871ZM27.4726 2.62559C27.1221 2.62793 26.7382 2.62659 26.351 2.62612C26.716 2.62115 27.1065 2.60421 27.4726 2.62559ZM26.1281 2.61701C25.8519 2.61847 26.6468 2.59165 26.7644 2.59475C26.5821 2.60135 26.3719 2.60865 26.1281 2.61701ZM23.566 2.58616C24.3056 2.49584 25.1001 2.54783 25.911 2.566C26.9556 2.64686 24.1413 2.53819 23.566 2.58616ZM24.8815 2.6721C24.5435 2.68542 22.2636 2.76406 23.045 2.71965C23.562 2.703 24.1639 2.68226 24.8815 2.6721ZM23.6161 2.28662C23.2701 2.2917 23.4017 2.28989 23.6091 2.22504C23.9336 2.11643 24.4361 2.12006 23.6161 2.28662ZM23.0117 2.61379C22.8548 2.60596 22.6262 2.59819 22.4199 2.59112C22.6864 2.57658 23.9525 2.55105 23.0117 2.61379ZM21.9676 2.76014C22.1887 2.75085 22.4285 2.74145 22.6933 2.73192C22.4748 2.76406 22.201 2.74793 21.9676 2.76014ZM22.3458 3.29039C22.1119 3.29769 21.8854 3.31265 21.6447 3.31066C21.8743 3.29448 22.1148 3.29769 22.3458 3.29039ZM22.6299 2.62916C22.3488 2.6402 22.0472 2.65124 21.7269 2.66217C21.8799 2.54918 22.5043 2.63938 22.6299 2.62916ZM21.63 2.2022C21.8263 2.19665 22.016 2.19151 22.2015 2.18666C22.0363 2.2102 21.8041 2.19455 21.63 2.2022ZM22.4965 2.88406C24.4875 2.74653 26.2263 2.73449 28.7409 2.73116C27.0007 2.79198 23.2268 3.06984 22.4965 2.88406ZM26.1106 2.1658C27.1663 2.00245 27.3429 2.20541 29.3722 2.20687C28.341 2.24929 23.8904 2.26717 26.1106 2.1658ZM41.5058 0.974903C40.9351 0.9187 40.444 0.871143 39.9585 0.826508C40.3642 0.779127 41.6005 0.90462 41.5058 0.974903ZM41.0355 0.839887C41.4529 0.873655 41.8849 0.880433 42.2432 0.97169C41.7847 0.998915 41.4411 0.909527 41.0355 0.839887ZM40.2052 0.900705C40.1359 0.891825 39.0262 0.823762 39.5652 0.829429C39.6902 0.844678 39.8884 0.866995 40.2052 0.900705ZM39.7993 0.896674C39.5702 0.87681 39.3389 0.855077 39.1084 0.834161C39.3423 0.830422 39.5279 0.870851 39.7993 0.896674ZM39.0532 1.42903C39.0127 1.42044 38.9126 1.40759 38.8207 1.39543C38.9674 1.4153 39.0441 1.43277 38.8514 1.41325C38.7245 1.4004 38.5478 1.38334 38.356 1.36459C38.4352 1.35197 38.6497 1.37294 38.8021 1.39298C38.6667 1.37487 38.5601 1.35898 38.7106 1.36155C39.3512 1.43183 39.8567 1.49055 39.0532 1.42903ZM39.0616 1.44813C39.081 1.47793 38.7116 1.43312 38.2115 1.36587C38.4969 1.373 38.7676 1.42318 39.0616 1.44813ZM39.2787 0.992839C38.8552 0.995293 38.3903 1.00388 37.8916 1.00447C38.1113 1.00119 39.2265 0.961173 39.2787 0.992839ZM38.0464 0.853967C38.4003 0.886216 38.7642 0.913734 39.1001 0.966957C38.6443 0.97093 38.7494 0.956149 38.0464 0.853967ZM37.5192 0.973442C36.9206 0.91683 37.1539 0.950015 36.7635 0.891124C37.899 0.813012 39.6399 1.00534 37.5192 0.973442ZM35.95 0.804015C36.3681 0.809857 36.3667 0.824638 37.1091 0.825632C36.6196 0.826975 36.3315 0.858699 35.95 0.804015ZM42.2015 1.74638C42.2751 1.75602 42.8272 1.77805 42.5831 1.78792C42.4598 1.77413 42.334 1.76029 42.2015 1.74638ZM42.6854 1.83606C42.5536 1.83226 42.4237 1.82905 42.2941 1.82566C42.4299 1.81141 42.5584 1.81678 42.6854 1.83606ZM42.9987 0.637158L42.6826 0.574295C42.7988 0.593049 43.1888 0.640956 42.9987 0.637158ZM42.3039 0.556651C41.1283 0.413339 40.7275 0.204125 42.8707 0.637509C41.9955 0.737062 39.7885 0.174095 41.5174 0.485725C40.4019 0.243035 42.4287 0.610926 42.3039 0.556651ZM40.3844 0.647149L39.7578 0.551685C39.4524 0.486835 40.2359 0.591822 40.3844 0.647149ZM39.462 0.503252C39.3756 0.490866 39.1398 0.48812 38.8854 0.488179C39.273 0.496942 39.6619 0.527147 39.9505 0.592815C40.1248 0.619631 40.4121 0.661345 40.1494 0.648375C40.1477 0.647908 40.1464 0.647674 40.1445 0.647207C40.1428 0.64376 40.1319 0.64078 40.1145 0.63821C40.1222 0.64078 40.1307 0.643059 40.1379 0.645688C40.1218 0.641949 40.1104 0.639145 40.0953 0.635639C39.6425 0.588258 36.3293 0.697801 38.7062 0.572075C36.7748 0.639612 37.3261 0.515229 38.2932 0.489815C38.6705 0.470827 39.119 0.406386 39.462 0.503252ZM37.7977 0.492619C37.7745 0.49221 36.9312 0.500214 36.8828 0.500623C36.9855 0.499864 38.699 0.422628 37.7977 0.492619ZM37.5952 0.505122C37.3642 0.50927 37.021 0.563954 36.7656 0.516689C37.042 0.512541 37.3186 0.508861 37.5952 0.505122ZM36.8506 0.605551C36.7984 0.609232 36.7498 0.597255 36.6993 0.593399C36.7545 0.586038 36.8001 0.599008 36.8506 0.605551ZM36.2219 0.525102C36.3135 0.520136 36.6662 0.566758 36.447 0.565239C36.3671 0.551218 36.0858 0.539299 36.2219 0.525102ZM35.9197 0.643293C36.0662 0.663858 36.4821 0.68378 36.0832 0.682203C35.9925 0.666253 35.6942 0.650888 35.9197 0.643293ZM36.0482 0.682611C35.7079 0.686292 35.3694 0.690265 35.0323 0.694354C35.3965 0.682086 35.7225 0.627109 36.0482 0.682611ZM35.5786 0.608297C35.4255 0.615425 35.2864 0.577917 35.1381 0.565122C35.2862 0.572834 35.4281 0.59521 35.5786 0.608297ZM35.1874 0.628687C34.7367 0.585629 35.3029 0.644403 34.6784 0.667772C33.4258 0.561091 36.031 0.559338 35.1874 0.628687ZM34.4063 0.468549C34.3038 0.464167 34.4478 0.446406 34.4856 0.452482C34.4746 0.457098 34.449 0.462356 34.4063 0.468549ZM34.4512 0.447633C34.2178 0.476202 34.0121 0.406386 33.7576 0.3829C33.9929 0.367476 34.2301 0.430106 34.4512 0.447633ZM34.1391 0.483038L33.5167 0.39663C33.6426 0.386815 34.4186 0.467497 34.1391 0.483038ZM33.5053 0.397272C33.8235 0.462181 34.2707 0.499396 33.8764 0.503077C33.211 0.579436 32.2385 0.409366 33.5053 0.397272ZM32.8475 0.674783C32.6996 0.75973 32.4331 0.726546 31.7358 0.748338C31.5611 0.755582 31.2643 0.689388 32.4207 0.668707C31.4059 0.822594 32.3907 0.655152 32.8475 0.674783ZM31.6851 0.643293C31.4987 0.675542 31.275 0.678113 31.0605 0.69155C31.3544 0.658366 31.623 0.627343 31.8584 0.5993C31.8514 0.601812 31.8434 0.603623 31.8363 0.606019C31.8703 0.600352 31.9088 0.594334 31.9563 0.587557C31.9952 0.586564 32.0274 0.585804 32.0555 0.58522C32.0004 0.58335 31.995 0.576106 32.2194 0.555249C32.9077 0.600936 31.6765 0.685591 31.6851 0.643293ZM32.1738 0.547069C32.2588 0.551101 31.9433 0.575405 31.9524 0.577859C32.0264 0.562435 32.085 0.526388 32.1738 0.547069ZM31.8147 0.589485C31.8259 0.589543 31.8402 0.588784 31.8483 0.589602L31.0227 0.682553C31.1306 0.670051 31.5644 0.601403 31.7684 0.590303C31.7446 0.59077 31.7214 0.591763 31.6961 0.590828C31.699 0.591121 32.0939 0.535385 32.0966 0.536904C32.0139 0.563486 31.9213 0.583234 31.8147 0.589485ZM30.5935 0.578735C30.5488 0.581656 30.5047 0.58522 30.4582 0.58633C30.671 0.501149 30.9889 0.512541 31.2873 0.498929C31.0678 0.524869 30.8673 0.558053 30.6538 0.575346C30.6722 0.574704 30.688 0.57447 30.6986 0.575054C30.5985 0.588258 30.4986 0.601403 30.4052 0.614023C30.3082 0.607888 30.4697 0.58744 30.5935 0.578735ZM30.4603 0.63745C30.5474 0.622669 30.6164 0.613964 30.6767 0.60783C30.9672 0.569212 31.3395 0.523934 31.6943 0.483505C32.4131 0.556067 31.4175 0.597839 30.8925 0.606953C31.0336 0.646389 30.5585 0.816868 30.1163 0.680099C31.7127 0.627168 30.226 0.6749 30.4603 0.63745ZM29.8307 0.75751C29.9607 0.753128 30.088 0.748922 30.2097 0.744832C30.1007 0.76049 29.6418 0.805768 29.8307 0.75751ZM28.6022 0.284574C28.0974 0.373377 28.8131 0.253726 29.0033 0.261906C29.8412 0.268858 27.5829 0.372676 28.6022 0.284574ZM28.7652 0.65042C28.4227 0.637626 27.3654 0.729409 27.3819 0.662222C27.7967 0.659009 29.3713 0.517566 28.7652 0.65042ZM25.5718 0.445004L24.4537 0.504771C24.7464 0.434897 25.1535 0.473223 25.5718 0.445004ZM24.6841 0.309579C24.3203 0.44109 23.6964 0.392832 23.2321 0.434488C23.6202 0.31361 24.2163 0.3288 24.6841 0.309579ZM21.8145 0.6267C23.31 0.229656 23.2278 0.464284 21.7623 0.647441C22.1455 0.559397 22.3016 0.52481 21.8145 0.6267ZM21.9737 1.089C22.1927 1.08445 22.3845 1.06785 22.0708 1.10945C21.6661 1.13796 21.4323 1.11331 21.9737 1.089ZM24.347 1.7014C23.4652 1.81076 22.3389 1.73645 21.5537 1.7718C22.48 1.7413 23.3487 1.70473 24.347 1.7014ZM21.6229 2.30111C21.6204 2.31537 21.6142 2.33874 21.579 2.28528C21.5587 2.22913 21.5762 2.04901 21.604 2.19385C21.5913 2.23299 21.5726 2.25466 21.6229 2.30111ZM21.5622 1.9584L21.5745 2.02728C21.4658 2.09067 21.4597 1.95454 21.5622 1.9584ZM21.5632 2.33727C21.5696 2.33651 21.5136 2.12841 21.5334 2.13098C21.5271 2.1325 21.5826 2.33809 21.5632 2.33727ZM21.691 2.6787C21.7254 2.73438 21.6468 2.67923 21.5369 2.72491C21.1821 2.76429 21.6282 2.68933 21.691 2.6787ZM21.0579 1.24295C21.4659 1.2187 21.2656 1.24307 21.0378 1.28671C21.0225 1.28758 21.0135 1.28793 21.0003 1.28864C21.0104 1.28852 21.0201 1.28799 21.0305 1.28811C20.8162 1.3234 20.6825 1.37078 20.4648 1.3709C20.6079 1.33987 20.7414 1.30447 20.9034 1.29255C20.7837 1.29506 20.9147 1.27485 21.0579 1.24295ZM20.568 1.15099C20.2735 1.17605 19.9841 1.18704 19.8913 1.19002C19.9517 1.1885 20.1088 1.18493 20.409 1.18073C18.9001 1.29711 19.0395 1.19247 20.568 1.15099ZM19.7708 1.30435C19.4641 1.36605 18.8061 1.36289 18.5321 1.36751C18.9447 1.34554 19.3576 1.32451 19.7708 1.30435ZM18.3065 1.41705C18.7016 1.39573 19.1259 1.37259 19.5575 1.35232C19.3862 1.43598 17.7516 1.50305 18.3065 1.41705ZM7.21525 1.73727C8.54757 1.44352 9.86776 1.16349 11.224 0.890072C12.0557 0.704871 12.8881 0.519903 13.7255 0.337038C14.9071 0.241866 12.6184 0.605668 11.224 0.890072C12.1778 0.886801 12.6051 0.91648 12.675 0.966432C12.8329 0.828728 13.9405 0.936636 14.5033 0.900121C13.5523 1.01486 13.9556 0.946743 12.676 0.9676C12.9288 1.16466 7.71797 1.67259 7.21525 1.73727ZM11.5776 2.36257C12.0214 2.35638 12.7135 2.32647 13.4137 2.29761C13.3204 2.29223 13.2273 2.28586 13.1349 2.27792C11.2266 2.35831 20.6046 1.47869 15.1331 1.93935C19.4106 1.24599 17.9344 1.98843 15.4889 2.23901C15.6906 2.24169 15.8269 2.25157 15.8678 2.27172C14.8307 2.29305 9.66678 2.61034 11.5776 2.36257ZM22.0209 4.27371C26.3726 4.16954 18.1054 4.62063 17.9068 4.6301C16.1817 4.73806 12.6377 4.93875 15.8628 4.72638C9.40874 5.01703 24.1587 4.17439 16.2634 4.58149C15.6793 4.481 28.545 3.80428 22.0209 4.27371ZM24.3146 3.44796C25.2377 3.35588 26.2273 3.36003 27.1683 3.34373C26.296 3.43546 24.9827 3.4451 24.3146 3.44796ZM27.628 4.08448C27.6763 4.08559 27.7447 4.07274 27.752 4.09546C27.6824 4.11048 27.6439 4.11749 27.628 4.08448ZM27.6869 4.13905L27.7787 4.12024C27.8277 4.13519 27.69 4.15722 27.6869 4.13905ZM27.8617 4.19665C27.8442 4.17001 27.7709 4.17276 27.7095 4.18094C27.7379 4.17457 27.7719 4.16674 27.8172 4.15576C27.8192 4.14845 28.2507 4.12695 28.3497 4.11539C28.2599 4.12561 27.8836 4.20384 27.8617 4.19665ZM28.3471 2.76102C28.4484 2.75623 28.8445 2.72556 28.9424 2.73718C28.7441 2.7453 28.5455 2.75272 28.3471 2.76102ZM29.1264 2.53001C29.5929 2.50927 30.0082 2.53936 30.3857 2.55122C29.4035 2.57249 29.7587 2.56986 29.1264 2.53001ZM29.7859 2.6995C29.6347 2.68367 29.8558 2.68174 30.2203 2.68589C30.0757 2.69027 29.9312 2.70108 29.7859 2.6995ZM30.451 2.55291C30.5677 2.55619 30.7085 2.56063 30.867 2.56606C30.5883 2.56489 30.2257 2.56559 30.451 2.55291ZM30.9835 2.65527L31.3595 2.6416C31.8441 2.65007 29.5033 2.68513 30.9835 2.65527ZM31.4467 2.63839L31.9267 2.62092C31.7751 2.63447 31.5913 2.63605 31.4467 2.63839ZM31.6109 2.5365C31.7319 2.54006 31.8662 2.54298 32.0422 2.54403C31.9492 2.56273 31.6093 2.55338 31.6109 2.5365ZM32.2343 2.5445C32.3727 2.54281 32.6718 2.54111 32.8945 2.53872C32.4937 2.55589 32.0283 2.56886 32.2343 2.5445ZM33.1045 2.52902C33.0253 2.52674 32.8664 2.52411 32.5935 2.52102C33.6334 2.49303 33.4872 2.50992 33.1045 2.52902ZM33.9437 2.48976C33.8302 2.49683 33.7141 2.50413 33.5939 2.51173C32.8361 2.47761 33.6525 2.49572 33.9437 2.48976ZM33.8809 3.58572C34.1408 3.57445 34.488 3.5651 35.1698 3.562C34.9465 3.56609 33.8207 3.61248 33.8809 3.58572ZM36.824 2.051C36.5552 2.04907 36.2925 2.04744 36.0497 2.04586C35.3195 2.02103 36.5989 2.0198 36.824 2.051ZM36.6217 2.60158C36.7946 2.60661 37.0725 2.60158 37.3288 2.61327C37.1346 2.60731 36.0849 2.63255 36.6217 2.60158ZM37.5536 2.61163C36.0775 2.57593 38.169 2.50384 38.7345 2.58633C38.4935 2.62559 37.1889 2.61192 37.5536 2.61163ZM38.3991 2.09342C38.5294 2.09476 38.6594 2.09686 38.7897 2.09838C38.6615 2.11094 38.5297 2.10019 38.3991 2.09342ZM38.7149 2.06432C38.6795 2.06648 38.641 2.06876 38.5984 2.07121C38.2949 2.07449 36.5913 2.02605 37.2222 2.02477C37.624 2.03663 39.3311 2.00788 38.9423 2.04744C39.4554 2.02261 40.5392 2.00496 39.4693 2.0687C39.4172 2.06742 39.2787 2.07279 39.0794 2.08284C38.7617 2.07951 38.6742 2.07244 38.7149 2.06432ZM40.6986 2.70213C40.8368 2.7089 40.9466 2.71498 40.9634 2.7186C40.8326 2.71393 40.4211 2.71685 40.6986 2.70213ZM39.3605 2.14395C39.523 2.10089 40.6268 1.99229 41.4529 2.04072C40.2732 2.10072 39.887 2.16025 39.3605 2.14395ZM40.4646 1.94233C40.8971 1.91219 41.2708 1.87959 41.7103 1.90471C41.3331 1.94338 40.8566 1.95145 40.4646 1.94233ZM42.1246 1.9154C42.3072 1.92013 42.5009 1.9251 42.7038 1.93024C42.2921 1.97201 41.1555 1.96401 42.1246 1.9154ZM42.4958 2.23118C42.7202 2.24386 42.9989 2.25759 43.309 2.27137C42.9746 2.27628 41.5513 2.26699 42.4958 2.23118ZM44.1254 2.21494C43.8727 2.21605 44.2757 2.20419 44.4027 2.1956C44.3142 2.20179 44.2209 2.20828 44.1254 2.21494ZM44.1021 2.21657C42.5707 2.32308 43.1201 2.11603 44.4967 2.14448C43.3409 2.23404 43.4055 2.23316 44.1021 2.21657ZM44.5393 4.395C47.5848 4.20022 50.0001 3.95157 52.2428 3.84763C46.7727 4.16493 49.129 4.20121 44.5393 4.395ZM56.8459 4.11901C57.7637 4.18111 49.2124 4.46593 55.0861 4.27891C47.0444 4.73029 52.0854 4.31286 56.8459 4.11901ZM56.1961 7.84203C56.5911 7.8207 57.0155 7.79757 57.4471 7.77724C57.2756 7.86096 55.641 7.92803 56.1961 7.84203ZM56.4217 7.79249C56.8343 7.77046 57.2472 7.74949 57.6604 7.72933C57.3536 7.79103 56.6957 7.78787 56.4217 7.79249ZM58.4576 7.57591C58.1629 7.60103 57.8737 7.61202 57.7809 7.615C57.8411 7.61348 57.9984 7.60991 58.2986 7.60565C56.7897 7.72209 56.9291 7.61745 58.4576 7.57591ZM58.9273 7.71169C58.9121 7.71256 58.9029 7.71291 58.8897 7.71356C58.8999 7.7135 58.9097 7.71297 58.9201 7.71309C58.7057 7.74832 58.572 7.79576 58.3544 7.79587C58.4975 7.76485 58.631 7.72945 58.793 7.71753C58.6733 7.72004 58.8042 7.69983 58.9475 7.66793C59.3555 7.64368 59.1552 7.66805 58.9273 7.71169ZM59.9604 7.53443C59.5556 7.56294 59.3219 7.53829 59.8633 7.51398C60.0823 7.50943 60.2741 7.49283 59.9604 7.53443ZM62.2289 6.82973C61.1271 6.94956 62.1854 6.85655 61.6628 6.96609C60.0398 7.11811 60.3152 6.87384 62.2289 6.82973ZM61.0608 7.632C61.8539 7.6053 62.7015 7.58006 63.6052 7.55692C63.1999 7.65204 60.1334 7.80178 61.0608 7.632ZM64.5355 7.53443C64.0468 7.59852 63.4149 7.7038 62.8212 7.69492C63.3372 7.64082 63.9423 7.53005 64.5355 7.53443ZM63.8817 7.66927C64.1656 7.63813 64.4597 7.60612 64.7604 7.57352C64.5267 7.65986 64.2078 7.66658 63.8817 7.66927ZM63.8405 7.67032C62.9457 7.71034 64.5194 7.5668 64.6787 7.53116C65.2319 7.50656 63.9764 7.63422 63.8405 7.67032ZM65.2819 7.4302C64.3824 7.57322 64.0458 7.53274 65.0639 7.40567C65.8718 7.3688 64.4233 7.6046 65.2819 7.4302ZM68.5375 7.32709C66.824 7.49722 66.9789 7.52853 68.5649 7.32639C68.3133 7.38352 68.0138 7.43283 67.7965 7.46502C67.911 7.45071 68.0622 7.43231 68.2576 7.40917C65.9112 7.84869 65.632 7.36214 68.5375 7.32709ZM67.8161 7.53753L68.0312 7.5169C67.9902 7.52257 67.8898 7.53934 67.8161 7.53753ZM68.2703 7.40765C68.7423 7.349 69.1426 7.29712 69.638 7.29414C69.3128 7.32078 67.6519 7.54664 68.2703 7.40765ZM73.0098 7.43529C72.5211 7.39106 67.5987 7.59431 70.1813 7.36243C71.6444 7.28514 73.3721 7.23419 73.0098 7.43529ZM73.4571 7.13558C73.2556 7.13295 73.0468 7.15041 72.8565 7.12366C73.2165 7.12447 73.6185 7.12722 73.4571 7.13558ZM73.8396 7.22899C74.2577 7.23484 74.2563 7.24962 74.9985 7.25061C74.5091 7.25195 74.2211 7.28368 73.8396 7.22899ZM75.4088 7.39836C74.8102 7.34181 75.0434 7.37505 74.6531 7.3161C75.7886 7.23793 77.5295 7.43032 75.4088 7.39836ZM75.7811 7.42944C76.0008 7.42617 77.1161 7.38615 77.1683 7.41776C76.7448 7.42027 76.2799 7.42886 75.7811 7.42944ZM76.998 7.25914C77.2319 7.2554 77.4174 7.29583 77.6888 7.32165C77.4598 7.30179 77.2284 7.28006 76.998 7.25914ZM77.4547 7.25441C77.5798 7.26966 77.7778 7.29197 78.0948 7.32568C78.0253 7.3168 76.9158 7.24874 77.4547 7.25441ZM79.3954 7.39988C78.8247 7.34368 78.3336 7.29612 77.848 7.25149C78.2538 7.2041 79.4901 7.3296 79.3954 7.39988ZM78.9251 7.26487C79.3425 7.29863 79.7745 7.30541 80.1327 7.39661C79.6742 7.42389 79.3305 7.33451 78.9251 7.26487ZM79.407 6.9107C78.2913 6.66801 80.3183 7.03591 80.1934 6.98163C79.0179 6.83832 78.6171 6.6291 80.7603 7.06249C79.8851 7.16204 77.6779 6.59902 79.407 6.9107ZM80.8883 7.06214L80.5722 6.99922C80.6883 7.01803 81.0784 7.06593 80.8883 7.06214ZM80.6521 1.5145C81.5301 1.49715 82.6606 1.46554 83.9391 1.45783C83.0438 1.48061 81.6761 1.53419 80.6521 1.5145ZM82.3205 7.34876C82.3921 7.36103 82.4599 7.37499 82.5227 7.39007C82.162 7.4066 81.9012 7.3695 81.6024 7.30267C81.8507 7.29022 82.1006 7.31131 82.3165 7.34806C82.1301 7.31797 82.0217 7.28748 82.3883 7.30494C82.6228 7.35531 82.984 7.42588 82.5017 7.34222C82.9803 7.42997 82.5787 7.39013 82.3205 7.34876ZM81.9135 6.07864C82.0606 6.06129 82.02 6.05282 82.1927 6.03833C83.2888 6.01952 82.5607 6.04697 81.9135 6.07864ZM82.852 7.39001C82.7641 7.36623 82.287 7.30325 82.4742 7.30524C82.6058 7.33416 83.1794 7.39924 82.852 7.39001ZM84.0515 6.13835C84.1165 6.11521 84.9278 6.08068 85.1973 6.09418C84.7509 6.11913 84.3671 6.13806 84.0515 6.13835ZM86.0432 2.6846C82.8257 2.73736 86.8892 2.59101 87.8312 2.63073C87.2114 2.64937 86.6135 2.66737 86.0432 2.6846ZM85.5935 2.62746C85.7445 2.60398 86.7011 2.60012 86.5483 2.6208L85.5935 2.62746ZM88.9015 2.45739C93.1567 2.30292 91.3463 2.42047 89.1639 2.52435C85.4038 2.57325 91.2974 2.42327 88.9015 2.45739ZM90.907 7.28613C91.6635 7.29343 92.688 7.30956 93.8349 7.32563C99.2027 7.42763 92.6555 7.38347 90.907 7.28613ZM92.3843 2.35603C92.5786 2.35071 92.7716 2.3458 92.9646 2.3409C92.539 2.35311 91.8417 2.37741 92.3843 2.35603ZM94.4119 2.17048C94.6824 2.162 95.7952 2.07361 95.2843 2.15476L94.4119 2.17048ZM95.526 2.15038C96.04 2.10288 96.7101 2.07788 97.2843 2.09079C97.1038 2.13712 95.7539 2.14308 95.526 2.15038ZM81.9779 1.52157C85.7888 1.45543 91.7075 1.48955 92.8668 1.42657C110.111 1.16501 105.77 1.24166 113.146 1.29606C101.704 1.6338 96.1701 1.41775 81.9779 1.52157ZM101.796 7.37762C102.335 7.35227 102.92 7.3289 104.074 7.30448C103.859 7.34444 102.359 7.39807 101.796 7.37762ZM103.906 7.39696C101.773 7.40619 105.436 7.28566 106.91 7.25774L103.906 7.39696ZM110.95 6.97071C111.534 6.95844 112.261 6.9544 112.96 6.95534C112.601 6.96539 110.83 7.04274 110.95 6.97071ZM113.781 6.87244C111.93 6.85637 109.942 6.89528 112.611 6.83125C115.569 6.82465 114.227 6.81349 119.113 6.78772C116.389 6.83481 117.311 6.8826 113.781 6.87244ZM118.685 7.04046L120.454 7.03561C119.968 7.09713 116.306 7.10204 118.685 7.04046ZM121.016 6.98876C120.71 6.96539 121.097 6.97456 121.14 6.96743C121.135 6.9724 121.094 6.9797 121.016 6.98876ZM120.492 6.27436C121.003 6.2483 121.888 6.24117 121.879 6.22055C126.884 6.21325 124.656 6.28067 120.492 6.27436ZM124.687 2.85245C124.135 2.91543 124.335 2.8275 123.349 2.86425C124.307 2.7876 127.493 2.56402 124.687 2.85245ZM126.394 2.65685C123.924 2.77843 124.407 2.51523 121.232 2.8677C122.126 2.51494 128.755 2.53404 126.394 2.65685ZM129.493 6.79018C130.989 6.80636 132.532 6.83142 133.929 6.86128C131.551 6.84907 123.746 6.92823 129.493 6.79018ZM132.837 6.34534C133.528 6.32332 133.842 6.28493 134.527 6.32355C134.05 6.32168 133.319 6.35352 132.837 6.34534ZM134.32 6.86034C134.142 6.85275 134.071 6.84615 134.293 6.84171C135.833 6.84959 135.763 6.86011 134.32 6.86034ZM134.732 6.73094C134.943 6.73205 135.152 6.73327 135.359 6.7345C135.15 6.73123 134.939 6.74344 134.732 6.73094ZM135.037 6.2514C136.531 6.23527 137.389 6.28809 138.645 6.28931C139.327 6.28464 134.44 6.39512 135.037 6.2514ZM141.634 6.28645C141.707 6.28394 141.821 6.28265 141.959 6.28207C141.882 6.29381 141.712 6.2882 141.634 6.28645ZM142.005 6.6988C142.343 6.69244 142.693 6.68607 143.052 6.67982C144.199 6.69092 142.42 6.69261 142.005 6.6988ZM169.538 6.78019C169.901 6.83002 167.249 6.79725 166.569 6.79438C166.668 6.79351 170.511 6.75039 169.538 6.78019ZM166.677 6.69226C167.443 6.63869 168.521 6.65218 169.313 6.71604C168.955 6.74817 167.464 6.74659 166.677 6.69226ZM168.392 5.88678C167.921 5.90571 166.549 5.83934 166.521 5.81369C167.022 5.8335 168.493 5.78758 168.392 5.88678ZM165.755 5.82345C165.98 5.84243 165.975 5.84904 165.436 5.82754L165.755 5.82345ZM165.24 6.5708C165.945 6.65072 166.695 6.56069 167.468 6.61239C167.898 6.72983 162.87 6.57816 165.24 6.5708ZM163.185 5.79885C163.12 5.80014 163.048 5.80171 162.98 5.80312C162.713 5.79108 163.057 5.79909 163.185 5.79885ZM166.217 6.70336C169.04 6.83925 159.294 6.64377 162.444 6.58973C164.979 6.57839 165.171 6.72918 166.217 6.70336ZM160.4 5.78249C160.862 5.79558 161.471 5.81568 162.059 5.83554C161.67 5.829 159.839 5.7999 160.4 5.78249ZM157.093 1.00961C156.946 1.01136 156.815 1.01305 156.692 1.01469C156.256 1.00242 156.889 1.01048 157.093 1.00961ZM157.209 5.69433C159.102 5.70695 156.871 5.75731 156.23 5.69381C156.469 5.67178 157.87 5.72138 157.209 5.69433ZM158.248 5.73786C158.082 5.74598 158.076 5.74002 157.883 5.75725C157.095 5.73178 157.953 5.7423 158.248 5.73786ZM153.685 6.59715C157.677 6.61882 158.763 6.50332 162.879 6.74297C158.609 6.74361 159.317 6.68688 153.685 6.59715ZM165.426 6.86291C165.736 6.85526 166.026 6.84317 166.319 6.87156C166.038 6.86975 165.742 6.86689 165.426 6.86291ZM166.072 6.84913C166.292 6.83721 166.5 6.8552 166.711 6.87355C166.497 6.87682 166.284 6.86046 166.072 6.84913ZM167.047 6.87419C166.809 6.85345 166.193 6.8396 166.806 6.83499C166.967 6.85409 167.478 6.87956 167.047 6.87419ZM169.276 6.85374C168.577 6.8656 167.852 6.88967 167.146 6.82874C167.759 6.79993 171.58 6.79684 169.276 6.85374Z" fill="#5A24C7"/>
</g>
<defs>
<filter id="filter0_d_1_913" x="0" y="-6.10352e-05" width="184" height="16.1037" filterUnits="userSpaceOnUse" color-interpolation-filters="sRGB">
<feFlood flood-opacity="0" result="BackgroundImageFix"/>
<feColorMatrix in="SourceAlpha" type="matrix" values="0 0 0 0 0 0 0 0 0 0 0 0 0 0 0 0 0 0 127 0" result="hardAlpha"/>
<feOffset dy="4"/>
<feGaussianBlur stdDeviation="2"/>
<feComposite in2="hardAlpha" operator="out"/>
<feColorMatrix type="matrix" values="0 0 0 0 0 0 0 0 0 0 0 0 0 0 0 0 0 0 0.25 0"/>
<feBlend mode="normal" in2="BackgroundImageFix" result="effect1_dropShadow_1_913"/>
<feBlend mode="normal" in="SourceGraphic" in2="effect1_dropShadow_1_913" result="shape"/>
</filter>
</defs>
</svg>
